<svg width="192" height="132" viewBox="0 0 192 132" fill="none" xmlns="http://www.w3.org/2000/svg">
<g filter="url(#filter0_d)">
<path d="M157.739 19.0669L143.545 19.2007C142.877 16.0208 140.636 7.67699 142.655 5.40114C142.747 4.54457 143.176 3.75536 143.854 3.19781C144.532 2.64025 145.406 2.35731 146.294 2.40788C148.494 -0.926269 152.158 -0.425668 154.635 1.65666C157.128 2.48935 158.067 3.96868 157.739 5.9762C159.585 7.54058 159.925 9.44386 159.097 11.6104L157.739 19.0669Z" fill="#2F2E41"/>
<path d="M156.372 27.5326L146.132 26.1598L144.083 23.2616C146.905 21.4497 147.903 18.9189 146.604 15.4823L153.694 15.3298C153.362 18.3901 154.407 20.7597 157.318 22.1938L156.372 27.5326Z" fill="#FFB9B9"/>
<path d="M143.711 116.961L143.319 122.144C143.301 122.379 143.335 122.614 143.42 122.835C143.504 123.056 143.635 123.256 143.806 123.424C143.977 123.591 144.182 123.721 144.409 123.805C144.636 123.889 144.879 123.926 145.122 123.911L147.871 123.75C147.999 123.743 148.123 123.708 148.235 123.649C148.347 123.59 148.444 123.507 148.52 123.408C148.595 123.308 148.647 123.193 148.671 123.072C148.696 122.951 148.693 122.826 148.662 122.706L147.136 116.795L143.711 116.961Z" fill="#E6E6E6"/>
<path d="M152.612 116.795L151.086 122.706C151.055 122.826 151.052 122.951 151.076 123.072C151.101 123.193 151.153 123.308 151.228 123.408C151.304 123.507 151.401 123.59 151.513 123.649C151.625 123.708 151.749 123.743 151.877 123.75L154.626 123.911C154.869 123.925 155.112 123.889 155.338 123.805C155.565 123.721 155.771 123.591 155.942 123.424C156.113 123.256 156.244 123.056 156.328 122.835C156.412 122.614 156.447 122.379 156.429 122.144L156.037 116.961L152.612 116.795Z" fill="#E6E6E6"/>
<path d="M156.215 117.681L152.504 117.32L148.81 79.0894L147.414 117.197L143.768 117.071L137.624 64.2934H161.099L156.215 117.681Z" fill="#4ECCA3"/>
<path d="M150.543 17.9228C154.459 17.9228 157.633 14.8497 157.633 11.0588C157.633 7.26785 154.459 4.1947 150.543 4.1947C146.627 4.1947 143.453 7.26785 143.453 11.0588C143.453 14.8497 146.627 17.9228 150.543 17.9228Z" fill="#FFB9B9"/>
<path d="M164.565 65.5138L135.891 65.8188C140.146 50.1347 142.692 35.5655 138.254 25.5496L145.344 22.1938C148.762 25.6459 152.569 25.29 156.687 21.8888L163.462 23.5666C162.302 36.701 162.822 50.768 164.565 65.5138Z" fill="#4ECCA3"/>
<path d="M128.013 49.3451L145.817 56.2091L149.797 57.3426C149.975 57.3933 150.162 57.4086 150.346 57.3876C150.53 57.3667 150.708 57.3099 150.869 57.2206C151.03 57.1313 151.171 57.0115 151.283 56.8682C151.395 56.725 151.476 56.5613 151.521 56.387C151.6 56.0813 151.565 55.7585 151.421 55.4758C151.278 55.193 151.035 54.9686 150.737 54.8423L146.604 53.616L134.158 46.5994L136.757 39.9642L131.322 37.1423L128.013 49.3451Z" fill="#FFB9B9"/>
<path d="M128.171 36.8372C131.558 38.1166 134.252 40.3 136.364 43.2436L142.981 33.939L138.254 25.5496L128.171 36.8372Z" fill="#4ECCA3"/>
<path d="M158.534 9.94631C155.656 9.2285 152.827 9.12994 150.077 10.0404C148.325 10.8619 146.221 10.7862 143.881 10.1094V3.26108L156.513 3.58719L158.534 9.94631Z" fill="#2F2E41"/>
<path d="M145.757 41.3475C145.201 41.3481 144.667 41.5625 144.273 41.9436C143.88 42.3247 143.658 42.8415 143.658 43.3805L144.486 60.1783C144.487 60.7173 144.709 61.234 145.102 61.6151C145.496 61.9963 146.03 62.2107 146.586 62.2113H156.062C156.619 62.2107 157.153 61.9963 157.546 61.6151C157.94 61.234 158.162 60.7173 158.162 60.1783L158.991 43.3805C158.99 42.8415 158.769 42.3247 158.375 41.9436C157.982 41.5625 157.448 41.3481 156.891 41.3475H145.757Z" fill="#3F3D56"/>
<path d="M172.644 48.0761L157.126 54.0583L155.955 54.5097C155.918 54.5238 155.881 54.5358 155.841 54.5478L151.919 55.6653C151.418 55.8077 150.723 55.1537 150.317 54.7023C150.116 54.4848 150.002 54.2047 149.996 53.9128C149.99 53.621 150.092 53.3367 150.284 53.1115C150.338 53.051 150.398 52.9952 150.462 52.9449C150.614 52.831 150.792 52.7552 150.98 52.7243L154.899 51.978C155.039 51.9513 155.174 51.9025 155.299 51.8335L157.126 50.8024L166.614 45.4541C166.878 45.3056 167.079 45.0712 167.181 44.7927C167.283 44.5143 167.28 44.2097 167.172 43.9334L165.361 39.3093C165.249 39.0264 165.249 38.714 165.358 38.4304C165.467 38.1469 165.68 37.9117 165.955 37.7686L168.956 36.2118C169.127 36.1227 169.317 36.0724 169.512 36.0648C169.706 36.0571 169.9 36.0923 170.078 36.1676C170.256 36.2429 170.415 36.3565 170.541 36.4997C170.668 36.6428 170.759 36.8119 170.808 36.9942L173.413 46.5996C173.493 46.8941 173.459 47.2068 173.317 47.4788C173.176 47.7508 172.936 47.9632 172.644 48.0761Z" fill="#FFB9B9"/>
<path d="M173.545 35.1593C170.158 36.4387 167.464 38.6222 165.353 41.5658L158.736 32.2611L163.462 23.5667L173.545 35.1593Z" fill="#4ECCA3"/>
<path d="M155.261 17.1682C152.16 18.4172 148.908 18.3665 145.523 17.1682C146.508 15.5404 145.035 14.2655 144.279 12.6223L156.919 12.2587C155.952 13.6862 154.526 15.3727 155.261 17.1682Z" fill="white"/>
<path d="M156.785 12.5303L156.638 12.3884L156.846 12.1878L158.083 10.7892L158.241 10.9196L156.998 12.3238L156.785 12.5303Z" fill="white"/>
<path d="M143.413 11.6801L143.281 11.8343L144.524 12.8373L144.656 12.6831L143.413 11.6801Z" fill="white"/>
<path d="M157.142 13.7097L154.966 17.0195L155.141 17.1272L157.317 13.8174L157.142 13.7097Z" fill="white"/>
<path d="M143.641 13.7094L143.467 13.8172L145.642 17.1273L145.817 17.0196L143.641 13.7094Z" fill="white"/>
<path d="M157.541 50.5186V54.153L156.234 54.6569C156.192 54.6725 156.15 54.686 156.106 54.6994L151.728 55.9467C151.168 56.1057 150.394 55.3757 149.94 54.8718C149.716 54.629 149.589 54.3164 149.582 53.9906C149.575 53.6648 149.689 53.3474 149.903 53.0961C149.964 53.0285 150.03 52.9663 150.102 52.9102C150.271 52.783 150.47 52.6984 150.68 52.6639L155.054 51.8308C155.211 51.801 155.362 51.7466 155.501 51.6696L157.541 50.5186Z" fill="white"/>
<path d="M159.434 37.5551H158.686C158.686 27.3017 156.505 20.1562 154.38 20.1562L154.193 19.4312C156.099 19.4312 157.314 22.4051 157.997 24.9C158.924 28.2822 159.434 32.7765 159.434 37.5551Z" fill="#3F3D56"/>
<path d="M142.212 35.0178H141.464C141.464 25.6273 143.659 19.7937 146.892 19.7937L146.705 20.5187C144.469 20.5187 142.212 25.0019 142.212 35.0178Z" fill="#3F3D56"/>
<path d="M159.06 39.5487C160.094 39.5487 160.932 38.7373 160.932 37.7363C160.932 36.7354 160.094 35.924 159.06 35.924C158.026 35.924 157.188 36.7354 157.188 37.7363C157.188 38.7373 158.026 39.5487 159.06 39.5487Z" fill="#3F3D56"/>
<path d="M139.217 39.3675H138.468C138.468 36.7692 139.98 34.6553 141.838 34.6553V35.3802C140.393 35.3802 139.217 37.1689 139.217 39.3675Z" fill="#3F3D56"/>
<path d="M145.207 39.3675H144.459C144.459 37.1689 143.283 35.3802 141.838 35.3802V34.6553C143.696 34.6553 145.207 36.7692 145.207 39.3675Z" fill="#3F3D56"/>
<path d="M144.833 40.2737C145.247 40.2737 145.582 39.9491 145.582 39.5487C145.582 39.1484 145.247 38.8238 144.833 38.8238C144.419 38.8238 144.084 39.1484 144.084 39.5487C144.084 39.9491 144.419 40.2737 144.833 40.2737Z" fill="#3F3D56"/>
<path d="M138.843 40.2737C139.256 40.2737 139.592 39.9491 139.592 39.5487C139.592 39.1484 139.256 38.8238 138.843 38.8238C138.429 38.8238 138.094 39.1484 138.094 39.5487C138.094 39.9491 138.429 40.2737 138.843 40.2737Z" fill="#3F3D56"/>
<path d="M48.6056 15.1859L35.455 17.342C35.1301 17.3957 34.7963 17.3307 34.518 17.1598C34.2397 16.9889 34.0368 16.7241 33.9486 16.4166C32.9985 13.0966 31.012 8.7655 32.9407 6.59129C33.0389 5.67662 33.4978 4.83387 34.2217 4.23849C34.9455 3.64311 35.8787 3.34097 36.8269 3.39497C39.1762 -0.165379 43.0892 0.369185 45.7339 2.59278C48.3956 3.48196 49.3991 5.06165 49.0482 7.20536C50.198 8.17983 50.8008 9.27744 50.928 10.4822C50.9882 11.1526 50.9001 11.8277 50.6695 12.4625C50.4389 13.0974 50.0711 13.6773 49.5907 14.1636L48.6056 15.1859Z" fill="#2F2E41"/>
<path d="M46.5611 25.2095L36.3664 24.6289C37.3655 22.4087 37.7646 20.2708 37.3658 18.2423H44.9619C44.9447 19.7998 45.7452 22.494 46.5611 25.2095Z" fill="#9F616A"/>
<path d="M34.2895 116.413L33.8713 121.948C33.8524 122.198 33.889 122.45 33.9787 122.686C34.0684 122.921 34.2092 123.136 34.3915 123.314C34.5738 123.493 34.7934 123.632 35.0357 123.722C35.278 123.812 35.5373 123.85 35.7963 123.835L38.7325 123.663C38.8685 123.655 39.0011 123.618 39.1207 123.555C39.2404 123.492 39.3442 123.404 39.4248 123.297C39.5053 123.191 39.5607 123.068 39.587 122.939C39.6132 122.809 39.6097 122.676 39.5767 122.548L37.9468 116.236L34.2895 116.413Z" fill="#E6E6E6"/>
<path d="M43.7951 116.236L42.1653 122.548C42.1323 122.676 42.1287 122.809 42.155 122.939C42.1812 123.068 42.2366 123.191 42.3172 123.297C42.3978 123.404 42.5016 123.492 42.6212 123.555C42.7409 123.618 42.8735 123.655 43.0095 123.663L45.9457 123.835C46.2046 123.85 46.464 123.812 46.7063 123.722C46.9486 123.632 47.1682 123.493 47.3505 123.314C47.5328 123.136 47.6735 122.921 47.7632 122.686C47.853 122.45 47.8896 122.198 47.8706 121.948L47.4525 116.413L43.7951 116.236Z" fill="#E6E6E6"/>
<path d="M47.642 117.182L43.6798 116.797L39.735 75.9723L38.2441 116.665L34.3513 116.53L27.7901 60.1726H52.8574L47.642 117.182Z" fill="#4ECCA3"/>
<path d="M41.3643 20.5917C45.5454 20.5917 48.9349 17.31 48.9349 13.2619C48.9349 9.21383 45.5454 5.93219 41.3643 5.93219C37.1831 5.93219 33.7936 9.21383 33.7936 13.2619C33.7936 17.31 37.1831 20.5917 41.3643 20.5917Z" fill="#9F616A"/>
<path d="M49.8968 9.76042C46.8241 9.24233 43.8031 9.1712 40.8664 9.82835C38.9957 10.4213 36.7491 10.3666 34.2507 9.8781V4.93524L47.7387 5.17062L49.8968 9.76042Z" fill="#2F2E41"/>
<path d="M46.4026 19.1431C43.0907 20.4769 39.6179 20.4227 36.0032 19.1431C37.055 17.4049 35.4828 16.0436 34.6756 14.2889L48.1727 13.9005C47.1406 15.4249 45.6176 17.2258 46.4026 19.1431Z" fill="white"/>
<path d="M33.7462 13.2879L33.6135 13.4421L34.941 14.5132L35.0738 14.359L33.7462 13.2879Z" fill="white"/>
<path d="M48.4173 15.4535L46.0934 18.9879L46.2683 19.0956L48.5921 15.5612L48.4173 15.4535Z" fill="white"/>
<path d="M33.9883 15.4533L33.8134 15.5611L36.1367 19.0958L36.3115 18.9881L33.9883 15.4533Z" fill="white"/>
<path d="M26.9713 46.6918L21.1743 43.2082L26.1181 29.1896C26.6695 27.743 27.7256 26.5285 29.1039 25.7559L30.7693 24.8224L30.9141 38.9646L26.9713 46.6918Z" fill="#4ECCA3"/>
<path d="M52.0284 53.5003L51.1707 46.3881C51.1249 42.634 51.7846 39.0046 53.3575 35.6603L54.1571 25.2095L45.3617 21.7259C45.3347 21.8994 45.3118 22.0728 45.286 22.2463L41.1638 24.2418L37.1437 23.3572L37.1659 22.113L29.1701 25.5966C31.8143 37.4985 30.3721 49.8582 25.825 64.4571L36.3588 67.2457L36.4463 62.3487L45.8342 61.6995C45.9309 63.2883 46.0086 64.8488 46.0537 66.3748C51.351 68.263 51.533 68.2317 56.3595 65.5282C54.4374 61.6157 52.9155 57.5443 52.0284 53.5003Z" fill="#4ECCA3"/>
<path d="M65.5511 44.9499L60.154 43.2082L51.5209 33.4779L54.157 25.2096L66.1508 41.4665L65.5511 44.9499Z" fill="#4ECCA3"/>
<path d="M48.6364 52.483C48.7247 52.8582 48.9631 53.1842 49.2993 53.3895C49.6355 53.5948 50.042 53.6626 50.4298 53.5782L55.0113 52.5736L54.3492 49.7423L49.7676 50.7467C49.3798 50.8317 49.0428 51.0625 48.8306 51.3881C48.6185 51.7137 48.5486 52.1075 48.6364 52.483V52.483Z" fill="#E6E6E6"/>
<path d="M52.7578 49.2077L55.3565 53.8526C59.7273 52.6723 63.5154 48.9514 67.1503 44.5629L66.1508 41.4664L59.9541 43.0146L52.7578 49.2077Z" fill="#4ECCA3"/>
<path d="M18.8754 34.638L23.8641 35.5004L35.2669 51.1978L29.2092 49.8178L18.8754 34.638Z" fill="#E6E6E6"/>
<path d="M17.9906 34.4459C17.9146 34.447 17.8403 34.4678 17.7754 34.5063C17.7106 34.5447 17.6576 34.5993 17.622 34.6644C17.5864 34.7294 17.5695 34.8025 17.5731 34.876C17.5767 34.9496 17.6007 35.0208 17.6424 35.0823L28.301 50.7394C28.3605 50.8269 28.4524 50.889 28.5577 50.913L33.5169 52.0426C33.6005 52.0617 33.6881 52.0557 33.7681 52.0254C33.8481 51.9951 33.9167 51.942 33.9648 51.8731C34.013 51.8042 34.0383 51.7228 34.0375 51.6396C34.0367 51.5565 34.0098 51.4755 33.9604 51.4075L22.2579 35.2976C22.2262 35.2537 22.1858 35.2163 22.1391 35.1875C22.0924 35.1587 22.0404 35.1391 21.9859 35.1298L18.0705 34.4529C18.0441 34.4483 18.0174 34.4459 17.9906 34.4459Z" fill="#3F3D56"/>
<path d="M24.6395 45.6405L24.9357 48.5293L29.6102 48.0801C30.0059 48.0421 30.3698 47.8534 30.6218 47.5557C30.8738 47.2579 30.9933 46.8754 30.9541 46.4923C30.9148 46.1092 30.7199 45.7569 30.4124 45.5129C30.1048 45.2689 29.7098 45.1532 29.3141 45.1912L24.6395 45.6405Z" fill="#E6E6E6"/>
<path d="M20.5747 45.3059C20.5815 46.2909 20.9901 47.2334 21.7115 47.928C22.4329 48.6226 23.4087 49.0131 24.4261 49.0142H25.1947L25.7543 44.4993L21.1211 42.8844L20.5747 45.3059Z" fill="#4ECCA3"/>
<path d="M47.8034 14.4L47.6569 14.2581L47.8782 14.0439L49.2004 12.5499L49.3576 12.6803L48.0301 14.1799L47.8034 14.4Z" fill="white"/>
<path d="M188 123.599H4V124H188V123.599Z" fill="#3F3D56"/>
<path d="M74.2432 123.398H117.757V72.2988C117.757 69.593 115.004 67.3917 111.62 67.3917H80.3795C76.9959 67.3917 74.2432 69.593 74.2432 72.2988V123.398Z" fill="#E6E6E6"/>
<path d="M77.5585 121.285H114.441V77.9723C114.441 75.6788 112.108 73.813 109.24 73.813H82.7598C79.8918 73.813 77.5585 75.6788 77.5585 77.9723V121.285Z" fill="white"/>
<path d="M73.9145 63.4149C72.839 63.4149 71.9639 64.1147 71.9639 64.9748V69.4773C71.9639 70.3373 72.839 71.0371 73.9145 71.0371H118.086C119.161 71.0371 120.036 70.3373 120.036 69.4773V64.9748C120.036 64.1147 119.161 63.4149 118.086 63.4149H73.9145Z" fill="#3F3D56"/>
<path d="M82.9834 115.731C82.4784 115.733 81.9946 115.928 81.6375 116.273C81.2805 116.619 81.0792 117.087 81.0778 117.576C81.0792 118.065 81.2805 118.534 81.6375 118.879C81.9946 119.225 82.4784 119.42 82.9834 119.421H86.5503V115.731H82.9834Z" fill="#3F3D56"/>
<path d="M89.8241 115.731H86.3549V119.421H89.8241C90.329 119.42 90.8128 119.225 91.1699 118.879C91.5269 118.534 91.7282 118.065 91.7297 117.576C91.7282 117.087 91.5269 116.619 91.1699 116.273C90.8128 115.928 90.329 115.733 89.8241 115.731Z" fill="#4ECCA3"/>
<path opacity="0.2" d="M91.0675 116.183C91.368 116.517 91.5338 116.944 91.5342 117.387C91.5327 117.876 91.3315 118.344 90.9744 118.69C90.6174 119.036 90.1335 119.231 89.6286 119.232H86.3549V119.421H89.8241C90.329 119.42 90.8128 119.225 91.1699 118.879C91.5269 118.534 91.7282 118.065 91.7297 117.576C91.7292 117.312 91.6698 117.05 91.5556 116.81C91.4413 116.569 91.2748 116.356 91.0675 116.183Z" fill="black"/>
<path d="M99.0794 87.9411C98.732 87.5864 98.2536 87.3792 97.7489 87.3647C97.2442 87.3503 96.7541 87.5298 96.3856 87.8641C96.0192 88.2005 95.8052 88.6636 95.7903 89.1523C95.7754 89.6409 95.9608 90.1155 96.3061 90.4722L98.7528 92.9851L101.526 90.4541L99.0794 87.9411Z" fill="#3F3D56"/>
<path d="M103.772 92.7605L101.392 90.3164L98.6187 92.8474L100.998 95.2915C101.346 95.6463 101.824 95.8535 102.329 95.8679C102.833 95.8823 103.324 95.7028 103.692 95.3685C104.058 95.0321 104.273 94.569 104.287 94.0804C104.302 93.5917 104.117 93.1172 103.772 92.7605Z" fill="#4ECCA3"/>
<path opacity="0.2" d="M104.285 93.9464C104.24 94.387 104.033 94.7971 103.7 95.101C103.332 95.4353 102.842 95.6149 102.337 95.6004C101.832 95.586 101.354 95.3788 101.006 95.024L98.7609 92.7177L98.6187 92.8474L100.998 95.2915C101.346 95.6463 101.824 95.8535 102.329 95.8679C102.834 95.8824 103.324 95.7028 103.692 95.3685C103.891 95.1867 104.046 94.9655 104.149 94.7201C104.251 94.4747 104.298 94.2108 104.285 93.9464Z" fill="black"/>
<path d="M88.9263 93.7589C88.5788 93.4042 88.1005 93.1969 87.5958 93.1825C87.091 93.1681 86.6009 93.3476 86.2325 93.6819C85.8661 94.0183 85.652 94.4814 85.6371 94.9701C85.6222 95.4587 85.8077 95.9332 86.153 96.29L88.5996 98.8029L91.3729 96.2718L88.9263 93.7589Z" fill="#3F3D56"/>
<path d="M93.6185 98.5782L91.2388 96.1342L88.4655 98.6652L90.8451 101.109C91.1926 101.464 91.6709 101.671 92.1756 101.686C92.6804 101.7 93.1705 101.521 93.5389 101.186C93.9053 100.85 94.1194 100.387 94.1343 99.8981C94.1492 99.4095 93.9637 98.935 93.6185 98.5782Z" fill="#4ECCA3"/>
<path opacity="0.2" d="M94.1318 99.7642C94.0872 100.205 93.8795 100.615 93.5471 100.919C93.1786 101.253 92.6885 101.433 92.1838 101.418C91.6791 101.404 91.2008 101.197 90.8533 100.842L88.6077 98.5354L88.4655 98.6652L90.8452 101.109C91.1926 101.464 91.6709 101.671 92.1756 101.686C92.6804 101.7 93.1705 101.521 93.5389 101.186C93.7375 101.004 93.8933 100.783 93.9956 100.538C94.0979 100.292 94.1444 100.029 94.1318 99.7642Z" fill="black"/>
<path d="M99.0794 99.1755C98.732 98.8207 98.2536 98.6135 97.7489 98.5991C97.2442 98.5846 96.7541 98.7642 96.3856 99.0985C96.0192 99.4349 95.8052 99.898 95.7903 100.387C95.7754 100.875 95.9608 101.35 96.3061 101.707L98.7528 104.219L101.526 101.688L99.0794 99.1755Z" fill="#3F3D56"/>
<path d="M103.772 103.995L101.392 101.551L98.6187 104.082L100.998 106.526C101.346 106.881 101.824 107.088 102.329 107.102C102.833 107.117 103.324 106.937 103.692 106.603C104.058 106.266 104.273 105.803 104.287 105.315C104.302 104.826 104.117 104.352 103.772 103.995Z" fill="#4ECCA3"/>
<path opacity="0.2" d="M104.285 105.181C104.24 105.621 104.033 106.031 103.7 106.335C103.332 106.67 102.842 106.849 102.337 106.835C101.832 106.82 101.354 106.613 101.006 106.258L98.7609 103.952L98.6187 104.082L100.998 106.526C101.346 106.881 101.824 107.088 102.329 107.102C102.834 107.117 103.324 106.937 103.692 106.603C103.891 106.421 104.046 106.2 104.149 105.954C104.251 105.709 104.298 105.445 104.285 105.181Z" fill="black"/>
<path d="M105.273 110.704C105.636 110.363 105.844 109.898 105.853 109.409C105.861 108.92 105.67 108.448 105.32 108.095C104.968 107.745 104.487 107.543 103.983 107.535C103.478 107.526 102.99 107.711 102.626 108.05L100.06 110.449L102.708 113.103L105.273 110.704Z" fill="#3F3D56"/>
<path d="M100.353 115.305L102.848 112.972L100.201 110.318L97.7052 112.651C97.3431 112.992 97.1348 113.457 97.1261 113.946C97.1173 114.435 97.3087 114.907 97.6584 115.26C98.0103 115.611 98.4912 115.812 98.9961 115.821C99.5009 115.829 99.9888 115.644 100.353 115.305Z" fill="#4ECCA3"/>
<path opacity="0.2" d="M99.1344 115.817C98.6788 115.779 98.2528 115.583 97.9348 115.265C97.5851 114.912 97.3937 114.44 97.4024 113.951C97.4112 113.462 97.6194 112.996 97.9816 112.656L100.336 110.454L100.201 110.318L97.7052 112.651C97.3431 112.992 97.1348 113.457 97.1261 113.946C97.1173 114.435 97.3087 114.907 97.6584 115.26C97.8487 115.45 98.079 115.598 98.3337 115.694C98.5884 115.79 98.8615 115.832 99.1344 115.817Z" fill="black"/>
<path d="M91.5977 104.886C91.9599 104.546 92.1681 104.08 92.1768 103.591C92.1856 103.102 91.9942 102.63 91.6445 102.278C91.2926 101.927 90.8117 101.725 90.3069 101.717C89.802 101.708 89.3142 101.894 88.95 102.232L86.3843 104.631L89.0321 107.285L91.5977 104.886Z" fill="#3F3D56"/>
<path d="M86.6773 109.487L89.1726 107.154L86.5249 104.5L84.0296 106.833C83.6674 107.174 83.4592 107.64 83.4504 108.128C83.4417 108.617 83.633 109.09 83.9828 109.442C84.3346 109.793 84.8155 109.994 85.3204 110.003C85.8253 110.011 86.3131 109.826 86.6773 109.487Z" fill="#4ECCA3"/>
<path opacity="0.2" d="M85.4587 109.999C85.0031 109.961 84.5771 109.765 84.2591 109.447C83.9094 109.094 83.718 108.622 83.7268 108.133C83.7355 107.644 83.9438 107.179 84.3059 106.838L86.6607 104.636L86.5249 104.5L84.0296 106.833C83.6674 107.174 83.4592 107.64 83.4504 108.128C83.4417 108.617 83.633 109.09 83.9828 109.442C84.173 109.632 84.4033 109.78 84.658 109.876C84.9127 109.972 85.1858 110.014 85.4587 109.999Z" fill="black"/>
<path d="M111.075 97.8649C111.437 97.5242 111.646 97.0586 111.654 96.5698C111.663 96.081 111.472 95.6087 111.122 95.2561C110.77 94.9054 110.289 94.7039 109.784 94.6954C109.279 94.6869 108.792 94.8722 108.427 95.2108L105.862 97.61L108.51 100.264L111.075 97.8649Z" fill="#3F3D56"/>
<path d="M106.155 102.466L108.65 100.133L106.002 97.4785L103.507 99.8119C103.145 100.153 102.937 100.618 102.928 101.107C102.919 101.596 103.111 102.068 103.46 102.421C103.812 102.771 104.293 102.973 104.798 102.981C105.303 102.99 105.791 102.805 106.155 102.466Z" fill="#4ECCA3"/>
<path opacity="0.2" d="M104.936 102.977C104.481 102.94 104.055 102.743 103.737 102.425C103.387 102.073 103.195 101.6 103.204 101.112C103.213 100.623 103.421 100.157 103.783 99.8166L106.138 97.6146L106.002 97.4785L103.507 99.8119C103.145 100.153 102.937 100.618 102.928 101.107C102.919 101.596 103.111 102.068 103.46 102.421C103.65 102.611 103.881 102.759 104.135 102.855C104.39 102.951 104.663 102.993 104.936 102.977Z" fill="black"/>
<path d="M106.746 112.416C106.399 112.061 105.92 111.854 105.416 111.84C104.911 111.825 104.421 112.005 104.052 112.339C103.686 112.675 103.472 113.138 103.457 113.627C103.442 114.116 103.627 114.59 103.973 114.947L106.419 117.46L109.193 114.929L106.746 112.416Z" fill="#3F3D56"/>
<path d="M111.438 117.235L109.059 114.791L106.285 117.322L108.665 119.766C109.012 120.121 109.491 120.328 109.995 120.343C110.5 120.357 110.99 120.178 111.359 119.843C111.725 119.507 111.939 119.044 111.954 118.555C111.969 118.066 111.784 117.592 111.438 117.235Z" fill="#4ECCA3"/>
<path opacity="0.2" d="M111.952 118.421C111.907 118.862 111.699 119.272 111.367 119.576C110.998 119.91 110.508 120.09 110.004 120.075C109.499 120.061 109.021 119.854 108.673 119.499L106.428 117.192L106.285 117.322L108.665 119.766C109.012 120.121 109.491 120.328 109.995 120.343C110.5 120.357 110.99 120.178 111.359 119.843C111.557 119.661 111.713 119.44 111.815 119.195C111.918 118.949 111.964 118.686 111.952 118.421Z" fill="black"/>
<path d="M93.2776 112.215C92.9301 111.861 92.4518 111.653 91.9471 111.639C91.4424 111.624 90.9522 111.804 90.5838 112.138C90.2174 112.475 90.0033 112.938 89.9884 113.426C89.9735 113.915 90.159 114.39 90.5043 114.746L92.9509 117.259L95.7243 114.728L93.2776 112.215Z" fill="#3F3D56"/>
<path d="M97.9698 117.035L95.5902 114.591L92.8169 117.122L95.1965 119.566C95.544 119.92 96.0223 120.128 96.527 120.142C97.0317 120.157 97.5218 119.977 97.8903 119.643C98.2567 119.306 98.4708 118.843 98.4857 118.355C98.5006 117.866 98.3151 117.391 97.9698 117.035Z" fill="#4ECCA3"/>
<path opacity="0.2" d="M98.4832 118.221C98.4386 118.661 98.2309 119.071 97.8985 119.375C97.53 119.709 97.0399 119.889 96.5352 119.875C96.0304 119.86 95.5521 119.653 95.2047 119.298L92.9591 116.992L92.8169 117.122L95.1965 119.566C95.544 119.92 96.0223 120.128 96.527 120.142C97.0317 120.157 97.5218 119.977 97.8903 119.643C98.0889 119.461 98.2446 119.24 98.347 118.994C98.4493 118.749 98.4957 118.485 98.4832 118.221Z" fill="black"/>
<path d="M97.0688 105.596C97.0689 106.21 96.8501 106.804 96.4495 107.28C96.0488 107.755 95.4909 108.081 94.8702 108.204C94.5074 108.275 94.1337 108.275 93.7709 108.204C93.1502 108.081 92.5924 107.755 92.1918 107.279C91.7911 106.804 91.5723 106.21 91.5723 105.596C91.5723 104.983 91.7911 104.389 92.1918 103.913C92.5924 103.438 93.1502 103.112 93.7709 102.989C94.1337 102.918 94.5074 102.918 94.8702 102.989C95.4909 103.112 96.0488 103.438 96.4495 103.913C96.8501 104.388 97.0689 104.983 97.0688 105.596Z" fill="#4ECCA3"/>
<path opacity="0.2" d="M94.8702 102.989V108.204C94.5074 108.275 94.1336 108.275 93.7709 108.204V102.989C94.1336 102.918 94.5074 102.918 94.8702 102.989Z" fill="black"/>
<path d="M98.312 94.9639C98.3121 95.5773 98.0933 96.1719 97.6927 96.6471C97.2921 97.1222 96.7342 97.4488 96.1134 97.5715C95.7506 97.6424 95.3769 97.6424 95.0141 97.5715C94.3934 97.4487 93.8356 97.1221 93.435 96.6469C93.0344 96.1718 92.8156 95.5773 92.8156 94.9639C92.8156 94.3506 93.0344 93.756 93.435 93.2809C93.8356 92.8057 94.3934 92.4792 95.0141 92.3564C95.3769 92.2854 95.7506 92.2854 96.1134 92.3564C96.7342 92.4791 97.2921 92.8056 97.6927 93.2808C98.0933 93.7559 98.3121 94.3505 98.312 94.9639Z" fill="#4ECCA3"/>
<path opacity="0.2" d="M96.1134 92.3564V97.5715C95.7507 97.6424 95.3769 97.6424 95.0142 97.5715V92.3564C95.3769 92.2854 95.7507 92.2854 96.1134 92.3564Z" fill="black"/>
<path d="M98.312 110.211C98.3121 110.824 98.0933 111.418 97.6927 111.894C97.2921 112.369 96.7342 112.695 96.1134 112.818C95.7506 112.889 95.3769 112.889 95.0141 112.818C94.3934 112.695 93.8356 112.369 93.435 111.894C93.0344 111.418 92.8156 110.824 92.8156 110.21C92.8156 109.597 93.0344 109.003 93.435 108.527C93.8356 108.052 94.3934 107.726 95.0141 107.603C95.3769 107.532 95.7506 107.532 96.1134 107.603C96.7342 107.726 97.2921 108.052 97.6927 108.527C98.0933 109.003 98.3121 109.597 98.312 110.211Z" fill="#4ECCA3"/>
<path opacity="0.2" d="M96.1134 107.603V112.818C95.7507 112.889 95.3769 112.889 95.0142 112.818V107.603C95.3769 107.532 95.7507 107.532 96.1134 107.603Z" fill="black"/>
<path d="M105.15 117.633C105.15 118.247 104.931 118.841 104.531 119.316C104.13 119.791 103.572 120.118 102.951 120.241C102.588 120.312 102.215 120.312 101.852 120.241C101.231 120.118 100.673 119.791 100.273 119.316C99.8722 118.841 99.6534 118.247 99.6534 117.633C99.6534 117.02 99.8722 116.425 100.273 115.95C100.673 115.475 101.231 115.148 101.852 115.026C102.215 114.955 102.588 114.955 102.951 115.026C103.572 115.148 104.13 115.475 104.531 115.95C104.931 116.425 105.15 117.02 105.15 117.633Z" fill="#4ECCA3"/>
<path opacity="0.2" d="M102.951 115.026V120.241C102.588 120.312 102.215 120.312 101.852 120.241V115.026C102.215 114.955 102.588 114.955 102.951 115.026Z" fill="black"/>
<path d="M111.19 103.976C111.647 104.402 111.937 104.967 112.012 105.576C112.088 106.185 111.943 106.801 111.604 107.318C111.405 107.621 111.145 107.881 110.841 108.085C110.319 108.432 109.689 108.594 109.057 108.544C108.426 108.494 107.832 108.233 107.376 107.808C106.92 107.382 106.629 106.817 106.554 106.208C106.479 105.599 106.623 104.984 106.962 104.466C107.161 104.164 107.421 103.903 107.725 103.699C108.247 103.352 108.877 103.189 109.509 103.24C110.14 103.29 110.734 103.551 111.19 103.976Z" fill="#4ECCA3"/>
<path opacity="0.2" d="M107.725 103.699L111.604 107.318C111.405 107.621 111.145 107.881 110.841 108.085L106.962 104.466C107.161 104.164 107.421 103.903 107.725 103.699Z" fill="black"/>
<path d="M112.019 109.794C112.475 110.22 112.766 110.785 112.841 111.394C112.916 112.003 112.772 112.618 112.433 113.136C112.234 113.438 111.974 113.699 111.67 113.903C111.148 114.25 110.518 114.412 109.886 114.362C109.255 114.311 108.661 114.051 108.205 113.626C107.749 113.2 107.458 112.635 107.383 112.026C107.308 111.417 107.452 110.801 107.791 110.283C107.99 109.981 108.25 109.721 108.554 109.517C109.076 109.17 109.706 109.007 110.338 109.058C110.969 109.108 111.563 109.368 112.019 109.794Z" fill="#4ECCA3"/>
<path opacity="0.2" d="M108.554 109.517L112.432 113.136C112.234 113.438 111.974 113.699 111.67 113.903L107.791 110.283C107.99 109.981 108.25 109.721 108.554 109.517Z" fill="black"/>
<path d="M87.3615 111.198C87.8177 111.624 88.1081 112.189 88.1834 112.798C88.2587 113.407 88.1144 114.023 87.7748 114.541C87.5759 114.843 87.3165 115.103 87.012 115.307C86.4899 115.654 85.8599 115.816 85.2285 115.766C84.5972 115.716 84.0032 115.456 83.5471 115.03C83.0909 114.604 82.8006 114.039 82.7253 113.43C82.65 112.821 82.7942 112.206 83.1337 111.688C83.3327 111.386 83.592 111.125 83.8965 110.921C84.4186 110.574 85.0486 110.412 85.68 110.462C86.3114 110.512 86.9054 110.773 87.3615 111.198Z" fill="#4ECCA3"/>
<path opacity="0.2" d="M83.8966 110.921L87.7749 114.541C87.5759 114.843 87.3165 115.103 87.012 115.307L83.1337 111.688C83.3327 111.386 83.592 111.125 83.8966 110.921Z" fill="black"/>
<path opacity="0.2" d="M78.491 63.4149H77.455V70.8376H78.491V63.4149Z" fill="black"/>
<path opacity="0.2" d="M84.5 63.4149H83.4639V70.8376H84.5V63.4149Z" fill="black"/>
<path opacity="0.2" d="M90.509 63.4149H89.473V70.8376H90.509V63.4149Z" fill="black"/>
<path opacity="0.2" d="M96.518 63.4149H95.482V70.8376H96.518V63.4149Z" fill="black"/>
<path opacity="0.2" d="M102.527 63.4149H101.491V70.8376H102.527V63.4149Z" fill="black"/>
<path opacity="0.2" d="M108.536 63.4149H107.5V70.8376H108.536V63.4149Z" fill="black"/>
<path opacity="0.2" d="M114.545 63.4149H113.509V70.8376H114.545V63.4149Z" fill="black"/>
</g>
<defs>
<filter id="filter0_d" x="0" y="0" width="192" height="132" filterUnits="userSpaceOnUse" color-interpolation-filters="sRGB">
<feFlood flood-opacity="0" result="BackgroundImageFix"/>
<feColorMatrix in="SourceAlpha" type="matrix" values="0 0 0 0 0 0 0 0 0 0 0 0 0 0 0 0 0 0 127 0"/>
<feOffset dy="4"/>
<feGaussianBlur stdDeviation="2"/>
<feColorMatrix type="matrix" values="0 0 0 0 0 0 0 0 0 0 0 0 0 0 0 0 0 0 0.25 0"/>
<feBlend mode="normal" in2="BackgroundImageFix" result="effect1_dropShadow"/>
<feBlend mode="normal" in="SourceGraphic" in2="effect1_dropShadow" result="shape"/>
</filter>
</defs>
</svg>
