<svg width="192" height="132" viewBox="0 0 192 132" fill="none" xmlns="http://www.w3.org/2000/svg">
<g filter="url(#filter0_d)">
<g clip-path="url(#clip0)">
<path opacity="0.1" d="M65.1724 123.93C74.133 123.93 81.3971 122.82 81.3971 121.451C81.3971 120.082 74.133 118.972 65.1724 118.972C56.2117 118.972 48.9476 120.082 48.9476 121.451C48.9476 122.82 56.2117 123.93 65.1724 123.93Z" fill="#4ECCA3"/>
<path opacity="0.1" d="M153.368 124C164.549 124 173.614 122.89 173.614 121.521C173.614 120.152 164.549 119.042 153.368 119.042C142.186 119.042 133.122 120.152 133.122 121.521C133.122 122.89 142.186 124 153.368 124Z" fill="#4ECCA3"/>
<path opacity="0.1" d="M6.30447 53.5769H23.2035V75.4909H7.54164C7.50001 75.7158 7.46005 75.9424 7.41676 76.1689H23.2035V93.842C23.1752 93.8341 23.1503 93.8246 23.1236 93.8151C22.6774 93.6471 22.2345 93.4697 21.7915 93.2796L21.5085 93.1576C21.0645 92.958 20.6204 92.7468 20.1764 92.524C20.0215 92.4463 19.8667 92.3655 19.7135 92.2832C17.2485 90.9694 15.0091 89.3048 13.0731 87.3469C13.0165 87.2946 12.9632 87.2391 12.9066 87.1884C12.6368 86.9096 12.3721 86.6276 12.1157 86.3393L11.8326 86.0225C11.5295 85.6692 11.2365 85.3064 10.9518 84.9389C10.9101 84.885 10.8702 84.8312 10.8269 84.7805C9.66888 83.2529 8.70737 81.5989 7.96291 79.8537C7.9396 79.8014 7.91962 79.7444 7.89797 79.6953C7.6693 79.1355 7.46671 78.5705 7.29021 78.0002C7.21361 77.761 7.14035 77.525 7.07708 77.2762C7.05376 77.2034 7.03378 77.1321 7.01547 77.0608C6.06969 73.5487 5.95813 69.9003 5.95813 66.2773C5.95813 65.8543 5.95813 65.4297 5.95813 65.0099C5.95813 63.5446 5.97645 62.0697 6.00309 60.5964C6.00309 60.2146 6.01974 59.8344 6.02806 59.4511C6.05138 58.4784 6.08468 57.5057 6.12797 56.533C6.13796 56.2621 6.15128 55.9928 6.16627 55.7235C6.16627 55.5682 6.17459 55.413 6.19124 55.2577C6.23121 54.6938 6.26451 54.1346 6.30447 53.5769Z" fill="#4ECCA3"/>
<path opacity="0.1" d="M23.2036 29.1774H13.934C15.4408 26.9335 17.0872 24.7773 18.8643 22.7203C20.2414 21.1108 21.695 19.5424 23.2036 18.0311V29.1774Z" fill="#4ECCA3"/>
<path opacity="0.1" d="M23.2036 29.8554V52.8989H6.35779C6.35779 52.8324 6.36944 52.7642 6.37444 52.6977C6.38942 52.5155 6.40441 52.3333 6.42106 52.1528C6.43938 51.9405 6.45936 51.7266 6.481 51.5191C6.50265 51.3116 6.52596 51.0581 6.55094 50.8284C6.57592 50.5987 6.59923 50.3658 6.62753 50.1361C6.65584 49.9064 6.68082 49.6767 6.71079 49.4486C6.74076 49.2204 6.7674 48.9891 6.79904 48.761C6.82402 48.5709 6.85066 48.3824 6.8773 48.1923C6.9156 47.9246 6.95556 47.6553 6.99885 47.3891C6.99885 47.3495 7.01051 47.3083 7.01717 47.2703C7.32108 45.322 7.73518 43.3908 8.25766 41.4849C8.80458 39.4856 9.50297 37.5267 10.3474 35.6234C11.2448 33.6324 12.2956 31.7071 13.4911 29.8634L23.2036 29.8554Z" fill="#4ECCA3"/>
<path opacity="0.1" d="M27.2381 53.5753V75.4909H63.3324V53.5753H27.2381ZM27.2381 76.1673V94.9874C27.4446 95.0285 27.6494 95.0681 27.8525 95.1014C28.1289 95.1521 28.4037 95.198 28.6851 95.2376C28.7384 95.2456 28.7933 95.2535 28.8516 95.2582C28.9615 95.2757 29.0747 95.2899 29.1846 95.3042C29.4627 95.3406 29.7391 95.3707 30.0171 95.3945C30.1487 95.4072 30.2819 95.4183 30.4151 95.4277L30.7365 95.4515C30.9113 95.4642 31.0845 95.4737 31.256 95.4784C31.3625 95.4784 31.4691 95.4879 31.579 95.4911C31.6623 95.4911 31.7455 95.4911 31.8321 95.4911C31.9187 95.4911 32.0419 95.4911 32.1468 95.4911C32.29 95.4911 32.4332 95.4911 32.5747 95.4911H32.7662C32.9094 95.4911 33.0526 95.4911 33.1942 95.4784H33.2041C33.3024 95.4784 33.4023 95.4784 33.5022 95.4658C33.5299 95.4673 33.5577 95.4673 33.5855 95.4658C33.6687 95.4658 33.752 95.4658 33.8319 95.4547H33.8902L34.448 95.4135C34.6311 95.3977 34.816 95.3771 35.0024 95.358L35.3821 95.3153C36.9266 95.1094 38.4539 94.8002 39.9528 94.3901C43.3196 93.4966 46.6132 92.2467 49.9783 91.3311C54.3292 90.1509 59.1364 89.571 63.3408 91.0142V76.1673H27.2381ZM63.3324 29.1774V0.00158366C59.3807 -0.0391493 55.4397 0.400588 51.6051 1.31012C42.4654 3.4947 34.2648 8.23298 27.2381 14.2845V29.1758H29.0497V29.8523H27.2381V52.8989H63.3324V29.8538H36.4877V29.1774H63.3324ZM109.694 19.3222C107.433 19.2462 105.185 18.565 103.152 17.5131C99.2636 15.5012 96.1582 12.3946 92.6881 9.7728C85.4782 4.31213 76.5367 1.01704 67.3636 0.199606V29.1774H118.89L119.018 29.0491L109.694 19.3222ZM114.388 18.5301L119.365 23.7262V17.1677C117.698 17.3642 116.238 17.8315 114.394 18.5238L114.388 18.5301ZM119.365 99.6607V76.1673H108.76C108.731 76.0675 108.703 75.9661 108.67 75.8647C108.701 75.9661 108.728 76.0675 108.758 76.1673H67.3703V93.1576C67.7633 93.4349 68.1512 93.7263 68.5359 94.0226C68.9505 94.3394 69.3601 94.6737 69.7714 95.0016L70.186 95.3279C70.3841 95.4864 70.5839 95.6448 70.7854 95.7937C71.185 96.1021 71.5885 96.4062 71.9959 96.7062C72.1974 96.8646 72.4039 97.0072 72.6087 97.1561C75.8601 99.5212 79.2901 101.656 82.8707 103.542C83.6733 103.964 84.4831 104.377 85.3001 104.779C85.8446 105.044 86.3924 105.307 86.9419 105.562C87.7677 105.945 88.6003 106.315 89.4395 106.671C97.1766 109.975 105.358 112.242 113.75 113.408C115.614 113.67 117.485 113.876 119.363 114.026V99.6591H119.529L119.365 99.6607ZM67.3703 29.8538V52.8989H119.371V29.8538H67.3703ZM67.3703 53.5753V75.4909H119.371V53.5753H67.3703ZM123.408 17.1392V24.455L129.76 17.8236C127.655 17.5004 125.538 17.2697 123.408 17.1313V17.1392ZM123.408 53.5833V75.4909H173.985V53.5753L123.408 53.5833ZM173.8 101.4L173.978 76.1673H123.408V114.278C126.665 114.408 129.928 114.371 133.182 114.167H133.238C134.792 114.074 136.339 113.939 137.879 113.761H137.914C146.128 112.852 154.16 110.813 161.758 107.708L173.8 101.4ZM183.737 57.1841C183.548 56.7579 183.349 56.335 183.148 55.9168C182.772 55.1247 182.374 54.3548 181.964 53.5848H178.018V75.4909H187.995C187.99 69.2872 186.34 62.9505 183.742 57.1762L183.737 57.1841ZM178.018 76.1752V97.8785C180.828 95.3153 183.203 92.383 184.913 89.0308C186.969 84.9944 187.91 80.6236 187.987 76.1721L178.018 76.1752ZM178.018 47.1974V52.9005H181.594C180.512 50.9372 179.32 49.0308 178.023 47.1895L178.018 47.1974ZM143.717 21.4387C143.454 21.3436 143.191 21.247 142.926 21.1535C140.134 20.1725 137.28 19.3567 134.382 18.7107L124.661 28.8606L124.475 29.0491L124.6 29.179H159.197C154.379 26.0234 149.184 23.4225 143.722 21.4308L143.717 21.4387ZM160.211 29.8618H124.117L123.408 30.4796V52.8989H129.625H129.635H173.992V42.0393C169.979 37.4224 165.348 33.3257 160.216 29.8538L160.211 29.8618Z" fill="#4ECCA3"/>
<path opacity="0.1" d="M23.2036 41.4785V52.8989H6.35779C6.35779 52.8324 6.36944 52.7642 6.37444 52.6977C6.38942 52.5155 6.40441 52.3333 6.42106 52.1527C6.43938 51.9405 6.45936 51.7266 6.481 51.5191C6.50265 51.3115 6.52596 51.0581 6.55094 50.8284C6.57592 50.5987 6.59923 50.3658 6.62753 50.1361C6.65584 49.9064 6.68082 49.6767 6.71079 49.4485C6.74076 49.2204 6.7674 48.9891 6.79904 48.761C6.82402 48.5709 6.85066 48.3824 6.8773 48.1923C6.9156 47.9246 6.95556 47.6553 6.99885 47.3891C6.99885 47.3495 7.01051 47.3083 7.01717 47.2703C7.32108 45.322 7.73518 43.3907 8.25766 41.4849L23.2036 41.4785Z" fill="#4ECCA3"/>
<path opacity="0.1" d="M6.30447 53.5769H23.2035V75.4909H7.54164C7.50001 75.7158 7.46005 75.9424 7.41676 76.1689H23.2035V93.842C23.1752 93.8341 23.1503 93.8246 23.1236 93.8151C22.6774 93.6471 22.2345 93.4697 21.7915 93.2796L21.5085 93.1576C21.0645 92.958 20.6204 92.7468 20.1764 92.524C20.0215 92.4463 19.8667 92.3655 19.7135 92.2832C17.2485 90.9694 15.0091 89.3048 13.0731 87.3469C13.0165 87.2946 12.9632 87.2391 12.9066 87.1884C12.6368 86.9096 12.3721 86.6276 12.1157 86.3393L11.8326 86.0225C11.5295 85.6692 11.2365 85.3064 10.9518 84.9389C10.9101 84.885 10.8702 84.8312 10.8269 84.7805C9.66888 83.2529 8.70737 81.5989 7.96291 79.8537C7.9396 79.8014 7.91962 79.7444 7.89797 79.6953C7.6693 79.1355 7.46671 78.5705 7.29021 78.0002C7.21361 77.761 7.14035 77.525 7.07708 77.2762C7.05376 77.2034 7.03378 77.1321 7.01547 77.0608C6.06969 73.5487 5.95813 69.9003 5.95813 66.2773C5.95813 65.8543 5.95813 65.4297 5.95813 65.0099C5.95813 63.5446 5.97645 62.0697 6.00309 60.5964C6.00309 60.2146 6.01974 59.8344 6.02806 59.4511C6.05138 58.4784 6.08468 57.5057 6.12797 56.533C6.13796 56.2621 6.15128 55.9928 6.16627 55.7235C6.16627 55.5682 6.17459 55.413 6.19124 55.2577C6.23121 54.6938 6.26451 54.1346 6.30447 53.5769Z" fill="#4ECCA3"/>
<path opacity="0.1" d="M39.9445 33.1537V52.8989H27.2381V33.1537H29.0497V26.4684H36.4861V33.1537H39.9445Z" fill="#4ECCA3"/>
<path opacity="0.1" d="M39.9444 53.5753H27.2397V75.4893H39.9444V53.5753Z" fill="#4ECCA3"/>
<path opacity="0.1" d="M27.2381 76.1689H39.9445V94.3869C38.4456 94.7967 36.9183 95.1053 35.3738 95.3105L34.9941 95.3549C34.8076 95.3755 34.6228 95.3929 34.4396 95.4103C34.2565 95.4277 34.0667 95.4404 33.8818 95.4515H33.8236C33.7436 95.4515 33.6571 95.461 33.5788 95.4626H33.4939C33.394 95.4626 33.2941 95.4721 33.1942 95.4753C33.0526 95.4832 32.9111 95.4848 32.7662 95.4864C32.7046 95.4864 32.6463 95.4864 32.5847 95.4864C32.4415 95.4864 32.3 95.4864 32.1568 95.4864H31.8421C31.7572 95.4864 31.6756 95.4864 31.5873 95.4864L31.266 95.4753C31.0995 95.4753 30.9196 95.4578 30.7465 95.4468L30.4268 95.4246L30.0288 95.3897C29.7491 95.366 29.471 95.3359 29.1963 95.2994L28.8632 95.2551L28.6967 95.2329C28.4187 95.1917 28.1439 95.1473 27.8642 95.0966C27.6594 95.0634 27.4562 95.0222 27.2498 94.9826L27.2381 76.1689Z" fill="#4ECCA3"/>
<path opacity="0.1" d="M119.371 30.8218H108.895V52.8973H119.371V30.8218Z" fill="#4ECCA3"/>
<path opacity="0.1" d="M119.373 53.5753V75.4909H67.3703V66.0381H95.0692V71.6144H108.895V53.5753H119.373Z" fill="#4ECCA3"/>
<path opacity="0.1" d="M119.538 99.6654H119.371V114.042C117.495 113.891 115.625 113.685 113.76 113.426C105.364 112.256 97.179 109.984 89.4395 106.674C87.2049 105.717 85.0159 104.672 82.8724 103.54C79.2918 101.653 75.8614 99.5188 72.6087 97.1545C71.7917 96.5589 70.9852 95.9495 70.1893 95.3264C69.6382 94.8939 69.0903 94.4503 68.5359 94.0194C68.1512 93.7232 67.7633 93.4317 67.3703 93.1529V76.1689H108.756C108.728 76.0675 108.7 75.9661 108.67 75.8663C108.701 75.9661 108.731 76.0675 108.76 76.1689H119.371V99.6559C119.428 99.6575 119.483 99.6623 119.538 99.6654Z" fill="#4ECCA3"/>
<path opacity="0.1" d="M146.696 29.1774H139.869V27.1591H142.929V21.1472C143.194 21.2391 143.459 21.3336 143.722 21.4308V27.1591H146.696V29.1774Z" fill="#4ECCA3"/>
<path opacity="0.1" d="M163.143 52.8989H129.628C129.628 52.8989 129.628 52.8989 129.64 52.9068L129.625 52.8989H123.408V30.8234H125.169V47.1404H133.22V37.4769H139.87V29.8554H146.697V37.4833H153.348V47.1467H163.143V52.8989Z" fill="#4ECCA3"/>
<path opacity="0.1" d="M123.408 53.5753V75.4909H163.143V53.5753H123.408ZM173.93 101.288L173.985 83.9409H163.143V76.1784H123.408V114.278C126.665 114.408 129.928 114.371 133.182 114.167H133.238C134.792 114.074 136.339 113.939 137.879 113.761H137.914C146.128 112.852 154.16 110.813 161.758 107.708" fill="#4ECCA3"/>
<path opacity="0.1" d="M178.724 76.1689H187.993C187.912 80.6188 186.973 84.9896 184.918 89.0261C183.208 92.3798 180.832 95.3121 178.024 97.8737V83.9329H178.724V76.1689Z" fill="#4ECCA3"/>
<path opacity="0.1" d="M187.998 75.4909H178.724V57.1762H183.742C186.34 62.9505 187.99 69.2872 187.998 75.4909Z" fill="#4ECCA3"/>
<path opacity="0.1" d="M119.373 36.9589H113.76V43.8802H119.373V36.9589Z" fill="#4ECCA3"/>
<path opacity="0.1" d="M119.373 51.3052H113.76V52.8989H119.373V51.3052Z" fill="#4ECCA3"/>
<path opacity="0.1" d="M119.373 53.5753H113.76V58.2249H119.373V53.5753Z" fill="#4ECCA3"/>
<path opacity="0.1" d="M119.373 65.6515H113.76V72.5728H119.373V65.6515Z" fill="#4ECCA3"/>
<path opacity="0.1" d="M119.373 79.9979H113.76V86.9191H119.373V79.9979Z" fill="#4ECCA3"/>
<path opacity="0.1" d="M119.371 99.6559C119.428 99.6559 119.483 99.6559 119.538 99.6654H119.371V101.273H113.76V94.3442H119.371V99.6559Z" fill="#4ECCA3"/>
<path opacity="0.1" d="M119.371 108.687V114.034C117.495 113.883 115.625 113.677 113.76 113.418V108.687H119.371Z" fill="#4ECCA3"/>
<path opacity="0.1" d="M91.426 74.9823H67.3703V75.4909H91.426V74.9823Z" fill="#4ECCA3"/>
<path opacity="0.1" d="M91.426 76.1673H67.3703V78.1158H91.426V76.1673Z" fill="#4ECCA3"/>
<path opacity="0.1" d="M91.426 84.5033H67.3703V87.6368H91.426V84.5033Z" fill="#4ECCA3"/>
<path opacity="0.1" d="M91.4243 94.0242V97.1577H72.6087C71.7917 96.5641 70.9846 95.9548 70.1876 95.3295C69.6365 94.8971 69.0903 94.4535 68.5342 94.0242H91.4243Z" fill="#4ECCA3"/>
<path opacity="0.1" d="M91.4243 103.544V106.674H89.4379C87.2055 105.716 85.017 104.671 82.8724 103.539L91.4243 103.544Z" fill="#4ECCA3"/>
<path opacity="0.1" d="M137.919 55.6997H133.183V60.2051H137.919V55.6997Z" fill="#4ECCA3"/>
<path opacity="0.1" d="M35.3854 34.7078H30.6499V39.2132H35.3854V34.7078Z" fill="#4ECCA3"/>
<path opacity="0.1" d="M35.3854 45.1729H30.6499V49.6783H35.3854V45.1729Z" fill="#4ECCA3"/>
<path opacity="0.1" d="M35.3854 55.6379H30.6499V60.1433H35.3854V55.6379Z" fill="#4ECCA3"/>
<path opacity="0.1" d="M35.3854 66.1014H30.6499V70.6068H35.3854V66.1014Z" fill="#4ECCA3"/>
<path opacity="0.1" d="M35.3854 76.5665H30.6499V81.0719H35.3854V76.5665Z" fill="#4ECCA3"/>
<path opacity="0.1" d="M35.3854 87.0316H30.6499V91.537H35.3854V87.0316Z" fill="#4ECCA3"/>
<path opacity="0.1" d="M155.997 55.6997H151.261V60.2051H155.997V55.6997Z" fill="#4ECCA3"/>
<path opacity="0.1" d="M137.919 66.8127H133.183V71.3181H137.919V66.8127Z" fill="#4ECCA3"/>
<path opacity="0.1" d="M155.997 66.8127H151.261V71.3181H155.997V66.8127Z" fill="#4ECCA3"/>
<path opacity="0.1" d="M137.919 77.9242H133.183V82.4296H137.919V77.9242Z" fill="#4ECCA3"/>
<path opacity="0.1" d="M155.997 77.9242H151.261V82.4296H155.997V77.9242Z" fill="#4ECCA3"/>
<path opacity="0.1" d="M137.919 89.0372H133.183V93.5426H137.919V89.0372Z" fill="#4ECCA3"/>
<path opacity="0.1" d="M155.997 89.0372H151.261V93.5426H155.997V89.0372Z" fill="#4ECCA3"/>
<path opacity="0.1" d="M137.919 100.15H133.183V104.656H137.919V100.15Z" fill="#4ECCA3"/>
<path opacity="0.1" d="M155.997 100.15H151.261V104.656H155.997V100.15Z" fill="#4ECCA3"/>
<path opacity="0.1" d="M133.183 114.167V111.262H137.917V113.754L133.183 114.167Z" fill="#4ECCA3"/>
<path opacity="0.1" d="M6.99719 47.2672V49.8446H23.2036V47.2672H6.99719ZM8.61234 49.683H7.29025V47.4256H8.62233L8.61234 49.683ZM10.2258 49.683H8.89374V47.4256H10.2258V49.683ZM11.836 49.683H10.5039V47.4256H11.836V49.683ZM13.4494 49.683H12.119V47.4256H13.4511L13.4494 49.683ZM15.0613 49.683H13.7292V47.4256H15.0613V49.683ZM16.6747 49.683H15.3427V47.4256H16.6747V49.683ZM18.2882 49.683H16.9561V47.4256H18.2882V49.683ZM19.9 49.683H18.568V47.4256H19.9V49.683ZM21.5119 49.683H20.1798V47.4256H21.5119V49.683ZM23.1237 49.683H21.7916V47.4256H23.1237V49.683Z" fill="#4ECCA3"/>
<path opacity="0.1" d="M6.99719 54.7666V57.3441H23.2036V54.7666H6.99719ZM8.61234 57.1809H7.29025V54.9298H8.62233L8.61234 57.1809ZM10.2258 57.1809H8.89374V54.9298H10.2258V57.1809ZM11.836 57.1809H10.5039V54.9298H11.836V57.1809ZM13.4494 57.1809H12.119V54.9298H13.4511L13.4494 57.1809ZM15.0613 57.1809H13.7292V54.9298H15.0613V57.1809ZM16.6747 57.1809H15.3427V54.9298H16.6747V57.1809ZM18.2882 57.1809H16.9561V54.9298H18.2882V57.1809ZM19.9 57.1809H18.568V54.9298H19.9V57.1809ZM21.5119 57.1809H20.1798V54.9298H21.5119V57.1809ZM23.1237 57.1809H21.7916V54.9298H23.1237V57.1809Z" fill="#4ECCA3"/>
<path opacity="0.1" d="M6.99719 62.2693V64.8515H23.2036V62.2693H6.99719ZM8.61234 64.6836H7.29025V62.4309H8.62233L8.61234 64.6836ZM10.2258 64.6836H8.89374V62.4309H10.2258V64.6836ZM11.836 64.6836H10.5039V62.4309H11.836V64.6836ZM13.4494 64.6836H12.119V62.4309H13.4511L13.4494 64.6836ZM15.0613 64.6836H13.7292V62.4309H15.0613V64.6836ZM16.6747 64.6836H15.3427V62.4309H16.6747V64.6836ZM18.2882 64.6836H16.9561V62.4309H18.2882V64.6836ZM19.9 64.6836H18.568V62.4309H19.9V64.6836ZM21.5119 64.6836H20.1798V62.4309H21.5119V64.6836ZM23.1237 64.6836H21.7916V62.4309H23.1237V64.6836Z" fill="#4ECCA3"/>
<path opacity="0.1" d="M6.99719 69.772V72.3463H23.2036V69.772H6.99719ZM8.61234 72.1863H7.29025V69.932H8.62233L8.61234 72.1863ZM10.2258 72.1863H8.89374V69.932H10.2258V72.1863ZM11.836 72.1863H10.5039V69.932H11.836V72.1863ZM13.4494 72.1863H12.119V69.932H13.4511L13.4494 72.1863ZM15.0613 72.1863H13.7292V69.932H15.0613V72.1863ZM16.6747 72.1863H15.3427V69.932H16.6747V72.1863ZM18.2882 72.1863H16.9561V69.932H18.2882V72.1863ZM19.9 72.1863H18.568V69.932H19.9V72.1863ZM21.5119 72.1863H20.1798V69.932H21.5119V72.1863ZM23.1237 72.1863H21.7916V69.932H23.1237V72.1863Z" fill="#4ECCA3"/>
<path opacity="0.1" d="M7.06708 77.2731C7.13202 77.5155 7.20528 77.7578 7.28187 77.997V77.4347H8.61395V79.6874H7.90129C7.92294 79.7396 7.94458 79.7967 7.96623 79.8458H23.2035V77.2731H7.06708ZM10.2308 79.6874H8.89869V77.4347H10.2308V79.6874ZM11.8409 79.6874H10.5088V77.4347H11.8409V79.6874ZM13.4544 79.6874H12.119V77.4347H13.4511L13.4544 79.6874ZM15.0662 79.6874H13.7341V77.4347H15.0662V79.6874ZM16.6797 79.6874H15.3476V77.4347H16.6797V79.6874ZM18.2932 79.6874H16.9611V77.4347H18.2932V79.6874ZM19.905 79.6874H18.5729V77.4347H19.905V79.6874ZM21.5168 79.6874H20.1847V77.4347H21.5168V79.6874ZM23.1286 79.6874H21.7965V77.4347H23.1286V79.6874Z" fill="#4ECCA3"/>
<path opacity="0.1" d="M10.8303 84.7757C10.8719 84.8264 10.9119 84.8835 10.9551 84.9342H11.836V86.0161C11.9309 86.1239 12.0241 86.2316 12.1207 86.333V84.9278H13.4528V87.1884H12.9133C12.9666 87.2407 13.0182 87.2962 13.0798 87.3469H23.2086V84.7757H10.8303ZM15.0613 87.1884H13.7292V84.9373H15.0613V87.1884ZM16.6748 87.1884H15.3427V84.9373H16.6748V87.1884ZM18.2882 87.1884H16.9562V84.9373H18.2882V87.1884ZM19.9 87.1884H18.568V84.9373H19.9V87.1884ZM21.5119 87.1884H20.1798V84.9373H21.5119V87.1884ZM23.1237 87.1884H21.7916V84.9373H23.1237V87.1884Z" fill="#4ECCA3"/>
<path opacity="0.1" d="M19.7202 92.2768C19.8717 92.3592 20.0266 92.4352 20.1831 92.5176V92.4384H21.5152V93.1513L21.7983 93.2764V92.4384H23.1303V93.8087C23.1559 93.8208 23.1827 93.8304 23.2103 93.8372V92.2768H19.7202Z" fill="#4ECCA3"/>
<path opacity="0.1" d="M129.628 52.8989H129.638H129.628ZM119.371 99.6544H119.538H119.371ZM108.67 75.8648C108.701 75.9661 108.728 76.0675 108.758 76.1673C108.731 76.0675 108.703 75.9661 108.67 75.8648ZM129.628 52.8942H129.638H129.628ZM29.0564 29.1727V29.8491H36.4944V29.1727H29.0564ZM119.371 99.6544H119.538H119.371ZM108.67 75.8648C108.701 75.9661 108.728 76.0675 108.758 76.1673C108.731 76.0675 108.703 75.9661 108.67 75.8648ZM129.628 52.8942H129.638H129.628ZM119.371 99.6496H119.538H119.371ZM108.67 75.8648C108.701 75.9661 108.728 76.0675 108.758 76.1673C108.731 76.0675 108.703 75.9661 108.67 75.8648Z" fill="#4ECCA3"/>
<path d="M80.8609 60.1465C80.8609 60.1465 80.2049 60.0594 80.2049 59.1501C80.2049 58.2407 79.7353 56.5425 79.7353 56.5425C79.7353 56.5346 79.3291 53.5848 78.7679 53.1159C78.2068 52.647 77.4858 49.8937 77.4858 49.8937C77.4858 49.8937 77.3626 48.3998 77.1111 48.0782C76.8597 47.7566 76.52 46.9693 76.0188 45.8461C75.5177 44.7229 73.428 43.9451 73.428 43.9451C73.428 43.9451 69.6498 41.8603 68.5792 41.1807C68.4819 41.1249 68.3909 41.0596 68.3078 40.9859C68.1213 40.753 67.3087 40.7482 67.3087 40.7482C67.2238 40.2381 67.1422 39.652 67.1156 39.1213C67.1156 39.0643 67.1156 39.0072 67.1072 38.9502C68.3011 38.2788 69.2003 37.2202 69.6399 35.9688C69.6598 35.9086 69.6765 35.8452 69.6948 35.785C69.7663 35.7626 69.8322 35.7262 69.8881 35.6782C69.944 35.6302 69.9887 35.5716 70.0195 35.5062C70.1161 35.3018 70.1177 35.0626 70.2376 34.8725C70.3775 34.6476 70.6439 34.5272 70.8537 34.3577C71.3832 33.9299 71.5197 33.2091 71.4948 32.5533C71.4781 32.0226 71.3882 31.4871 71.4232 30.9596L71.4332 30.8265C71.4432 30.7473 71.4548 30.6681 71.4698 30.5921C71.5514 30.1992 71.7296 29.8285 71.8295 29.4388C71.9294 29.0491 71.9394 28.6103 71.7062 28.2744C71.3649 27.7817 70.6539 27.6835 70.0295 27.6328C69.3218 27.5758 68.6891 27.6502 68.2362 27.091C68.0242 26.7988 67.7857 26.5247 67.5235 26.272C67.4303 26.1896 66.5245 25.6637 66.5245 25.6288C65.6404 25.2393 64.6383 25.1661 63.7021 25.4229C63.2326 25.5528 62.7896 25.7651 62.3134 25.8712C61.2861 26.1025 60.1038 25.8522 59.2313 26.4114C58.7451 26.7283 58.4537 27.232 58.1806 27.7231C57.9586 28.1276 57.7333 28.5316 57.5046 28.935C57.1366 29.5988 56.762 30.2736 56.6071 31.0087C56.5746 31.1687 56.5545 31.3307 56.5472 31.4935V31.5014C56.5472 31.56 56.5472 31.6186 56.5472 31.6772V31.7517C56.5472 31.8071 56.5472 31.861 56.5572 31.9101C56.5672 31.9592 56.5655 31.9751 56.5705 32.0083C56.5755 32.0416 56.5838 32.116 56.5938 32.1667C56.6038 32.2174 56.6238 32.3061 56.6438 32.3758C56.6521 32.4059 56.6637 32.4345 56.6737 32.463C56.6904 32.5168 56.7104 32.5691 56.732 32.6214C56.7437 32.6483 56.7553 32.6768 56.7686 32.7038C56.7936 32.7592 56.8236 32.8131 56.8536 32.8622C56.8669 32.8844 56.8769 32.905 56.8902 32.9256C56.9367 32.9992 56.9878 33.0701 57.0434 33.1378C57.3997 33.5608 57.9242 33.8301 58.3122 34.2262C58.3122 34.242 58.3122 34.2579 58.3122 34.2721C58.3122 34.3165 58.3122 34.3592 58.3122 34.4036C58.3328 35.2869 58.5799 36.152 59.032 36.9236C59.4841 37.6953 60.1276 38.3502 60.9064 38.8314C60.9064 38.8916 60.9147 38.9534 60.9181 39.0136C60.9505 39.4838 60.9444 39.9557 60.8998 40.4251C60.8319 40.3491 60.7471 40.2886 60.6514 40.248C60.5557 40.2074 60.4517 40.1878 60.3469 40.1906C60.2754 40.1873 60.2037 40.1931 60.1338 40.208L60.1188 40.1969V40.2112C59.7525 40.2967 59.3013 40.6595 58.87 41.6908C58.87 41.6908 57.5579 43.0976 56.5588 43.039C55.5598 42.9803 53.0305 44.5027 53.0305 44.5027C53.0305 44.5027 50.5628 46.0267 50.0333 47.5792C49.7374 48.4596 49.3825 49.321 48.971 50.1583L45.9205 56.1385L45.3577 60.8831C45.3577 60.8831 45.6691 62.9933 45.6075 63.3149C45.5459 63.6364 46.888 66.5371 46.888 66.5371C46.888 66.5371 51.3221 73.9495 53.1337 74.3297L53.2636 74.2425C53.3411 74.281 53.4233 74.3103 53.5084 74.3297L53.8814 74.0794C53.9038 74.3583 53.8943 74.6388 53.8531 74.9158C53.6033 75.6477 53.9463 80.424 54.3826 81.3602C54.8188 82.2965 54.664 94.5723 54.664 94.5723L54.6024 95.6559C54.6024 95.6559 54.6024 95.6907 54.6173 95.7509L54.6024 96.0076L54.6473 96.0297C54.694 96.3734 54.6788 96.7222 54.6024 97.061C54.4458 97.5363 54.3826 98.8797 54.3826 98.8797C54.3826 98.8797 53.1354 106.465 53.7265 107.989C54.3176 109.513 54.8205 111.182 54.8205 111.182C54.8205 111.182 55.4449 113.083 54.8505 113.408C54.256 113.733 52.5659 114.278 52.9139 115.07C53.2303 115.802 54.4308 117.763 54.609 118.05L54.594 118.2L54.3493 120.724C54.3889 121.057 54.4839 121.382 54.6307 121.687C54.8987 122.237 55.4199 122.807 56.4106 122.745C56.5772 122.734 56.7703 122.715 56.9568 122.691C58.7701 122.46 61.003 121.69 61.003 121.69C60.8871 121.62 60.7808 121.537 60.6866 121.442C60.5975 121.359 60.5269 121.261 60.4791 121.152C60.4313 121.043 60.4073 120.926 60.4086 120.808C60.4352 120.348 59.531 118.159 59.3063 117.621C59.2713 117.543 59.253 117.499 59.253 117.499C59.253 117.499 61.3144 115.449 60.9714 113.632C60.9714 113.632 58.6902 112.364 59.4411 111.669C60.1921 110.973 61.5342 108.976 61.5342 108.976C61.5342 108.976 61.5958 101.506 61.5342 100.391C61.4699 99.6169 61.5085 98.8382 61.649 98.0733C61.674 97.9577 61.704 97.8452 61.7356 97.7343C62.7742 97.8818 63.8226 97.9575 64.8727 97.9609C65.2557 97.9609 65.6453 97.9608 66.0382 97.9387C66.0382 98.0443 66.0432 98.1583 66.0532 98.2809C66.1398 100.131 66.3013 103.376 66.4329 104.581C66.6194 106.309 67.6501 110.967 67.6501 110.967C67.6501 110.967 65.6836 112.168 67.9931 115.127C67.9931 115.127 67.9931 116.2 67.8399 116.355C67.6763 116.862 67.5446 117.379 67.4453 117.901C67.3487 118.459 67.3087 119.023 67.4652 119.316C67.8399 120.016 70.0878 119.959 70.0878 119.959L70.1427 119.949C70.5671 119.908 70.9959 119.946 71.4044 120.064C71.8129 120.181 72.1928 120.374 72.5221 120.632C73.3763 121.285 76.6183 120.998 78.3733 120.79C79.061 120.708 79.5205 120.632 79.5205 120.632C79.5428 120.558 79.5507 120.481 79.5439 120.404C79.5255 119.994 79.1875 119.094 76.8964 118.291C76.8964 118.291 74.7417 116.912 74.7717 115.712H74.7267H74.477C74.6585 115.702 74.775 115.712 74.775 115.712C74.775 115.712 73.9308 112.781 74.2755 112.543C74.6202 112.306 73.5878 109.058 73.5878 109.058C73.5878 109.058 72.9967 103.608 72.9651 103.227C72.9664 102.899 73.0186 102.573 73.1199 102.26L72.9651 99.2726C72.9651 99.2726 72.9351 98.2793 72.9651 97.9561C72.96 97.6756 72.9361 97.3957 72.8935 97.1181C72.8785 97.0072 72.8635 96.8915 72.8468 96.7775C73.6544 96.5826 74.1789 96.402 74.1789 96.402L74.0857 86.0019C74.7717 84.7345 74.8982 81.9543 74.8949 79.982C74.8949 78.7147 74.835 77.7768 74.835 77.7768L75.7724 76.321C75.7724 76.321 75.9889 74.5784 75.6459 74.1966C75.4943 74.0239 75.5626 73.8449 75.6875 73.6976C75.7523 73.6486 75.8208 73.6042 75.8923 73.5645C75.8923 73.5645 75.8823 73.5502 75.8706 73.5296C75.9361 73.4776 76.0057 73.4305 76.0788 73.3887C76.0788 73.3887 75.7458 72.8976 76.0438 72.69C76.3236 72.8706 76.5733 73.0069 76.7631 73.1178C76.7498 73.2334 76.7365 73.2999 76.7365 73.2999L76.8164 73.1415C76.9996 73.2397 77.1111 73.2999 77.1111 73.2999C77.1111 73.2999 78.5798 70.5165 78.5481 70.1062C78.5165 69.6959 79.5472 67.9676 79.5472 67.9676C79.5472 67.9676 79.6721 67.0599 80.2349 66.6797C80.7977 66.2995 80.6711 63.5446 80.6711 63.5446C80.6711 63.5446 80.8276 62.1093 81.2023 61.5232C81.5769 60.937 80.8609 60.1465 80.8609 60.1465ZM52.7608 58.9251L52.7891 59.5889C52.6226 59.3338 52.5027 59.1501 52.5027 59.1501L52.7608 58.9251Z" fill="url(#paint0_linear)"/>
<path d="M77.1911 72.0976L76.8314 73.555C76.8314 73.555 73.9508 72.1562 73.4313 70.3787C72.9118 68.6013 74.3005 67.9264 74.3005 67.9264L76.9846 69.0084L77.1911 72.0976Z" fill="white"/>
<path opacity="0.1" d="M77.1911 72.0976L76.8314 73.555C76.8314 73.555 73.9508 72.1562 73.4313 70.3787C72.9118 68.6013 74.3005 67.9264 74.3005 67.9264L76.9846 69.0084L77.1911 72.0976Z" fill="black"/>
<path d="M61.0246 121.7C61.0246 121.7 58.3605 122.631 56.5289 122.749C55.5565 122.81 55.0453 122.243 54.7822 121.697C54.6385 121.393 54.5458 121.069 54.5074 120.738L54.7456 118.227L54.8721 116.89L58.7634 115.929L59.3146 117.532L59.3662 117.654C59.5877 118.189 60.4752 120.367 60.4485 120.822C60.4474 120.939 60.4711 121.054 60.518 121.162C60.5649 121.269 60.6342 121.366 60.7216 121.448C60.8109 121.544 60.9128 121.628 61.0246 121.7Z" fill="white"/>
<path d="M79.2225 120.423C79.2292 120.499 79.2213 120.576 79.1992 120.649C79.1992 120.649 73.5012 121.554 72.3356 120.649C72.007 120.385 71.6239 120.189 71.211 120.074C70.7981 119.959 70.3645 119.927 69.9379 119.981C69.9379 119.981 67.7333 120.038 67.3653 119.347C67.2121 119.057 67.2521 118.495 67.347 117.941C67.4438 117.421 67.5728 116.907 67.7333 116.402L67.8215 116.336L68.3461 115.935L74.4869 115.762H74.5336C74.5036 116.957 76.6183 118.327 76.6183 118.327C78.8645 119.119 79.1959 120.014 79.2225 120.423Z" fill="white"/>
<path opacity="0.1" d="M79.2224 120.423C79.2283 120.499 79.2198 120.576 79.1975 120.649C79.1975 120.649 73.5012 121.554 72.3356 120.649C72.0072 120.385 71.6244 120.19 71.2118 120.074C70.7992 119.959 70.3658 119.927 69.9395 119.981C69.9395 119.981 67.7333 120.038 67.3669 119.347C67.2138 119.056 67.2521 118.495 67.347 117.941C68.1962 118.021 69.5366 118.223 70.0627 118.703C70.8587 119.433 72.2074 120.162 73.0349 120.219C73.6827 120.258 77.5573 120.375 79.2224 120.423Z" fill="black"/>
<path opacity="0.1" d="M61.0246 121.7C61.0246 121.7 58.3604 122.631 56.5288 122.748C55.5564 122.81 55.0452 122.243 54.7838 121.695C55.4615 121.912 56.4023 122.14 56.8968 121.931C57.4829 121.684 59.561 121.524 60.7266 121.456C60.8153 121.548 60.9153 121.63 61.0246 121.7Z" fill="black"/>
<path d="M64.9775 46.6335C62.7796 45.8208 59.9523 43.1356 60.6583 41.8809C60.8151 41.5643 60.9083 41.2226 60.933 40.8734C60.9784 40.3993 60.9851 39.9227 60.953 39.4476C60.9035 38.6696 60.8051 37.8952 60.6583 37.1284C60.6583 37.1284 67.5202 37.2757 67.1205 38.2373C67.004 38.5193 66.9857 39.0088 67.0173 39.5569C67.0489 40.1051 67.1322 40.7245 67.2188 41.2488C67.3387 41.9681 67.4585 42.5162 67.4585 42.5162C67.4585 42.5162 67.0389 43.0754 66.7925 43.1055C66.5461 43.1356 68.1312 47.7915 64.9775 46.6335Z" fill="#CF6F80"/>
<path opacity="0.1" d="M59.3612 117.654L59.3096 117.708C57.2582 115.347 54.7772 118.289 54.7772 118.289L54.7405 118.227L54.8671 116.89L58.7584 115.929L59.3096 117.532L59.3612 117.654Z" fill="black"/>
<path opacity="0.1" d="M74.5352 115.929C74.5352 115.929 73.0366 115.899 72.2374 116.57C71.4381 117.242 67.5751 116.716 67.7416 116.57C67.7909 116.498 67.8207 116.415 67.8282 116.329L68.3527 115.929L74.4936 115.756C74.5169 115.862 74.5352 115.929 74.5352 115.929Z" fill="black"/>
<path d="M61.9138 97.3921C61.8022 97.6546 61.7174 97.9268 61.6607 98.2048C61.5218 98.9661 61.4832 99.741 61.5458 100.511C61.6074 101.62 61.5458 109.052 61.5458 109.052C61.5458 109.052 60.2287 111.033 59.4944 111.732C58.7601 112.431 60.993 113.685 60.993 113.685C61.326 115.491 59.3079 117.532 59.3079 117.532C57.2565 115.171 54.7755 118.115 54.7755 118.115C54.7755 118.115 53.4268 115.897 53.0904 115.105C52.7541 114.313 54.4075 113.765 54.9886 113.443C55.5697 113.121 54.9603 111.225 54.9603 111.225C54.9603 111.225 54.4691 109.563 53.8863 108.047C53.3035 106.531 54.5291 98.9842 54.5291 98.9842C54.5291 98.9842 54.5923 97.644 54.7439 97.1767C54.8203 96.8394 54.8355 96.4922 54.7888 96.1501C54.7788 96.0345 54.7672 95.9378 54.7588 95.8729C54.7505 95.8079 54.7439 95.7778 54.7439 95.7778L54.7672 95.7398L55.5997 94.2634C55.5997 94.2634 62.3134 96.4622 61.9138 97.3921Z" fill="#4ECCA3"/>
<path d="M74.5352 115.754C74.5352 115.754 73.0366 115.724 72.2374 116.388C71.4381 117.052 67.5751 116.534 67.7416 116.388C67.9081 116.242 67.8948 115.163 67.8948 115.163C65.6286 112.22 67.5618 111.026 67.5618 111.026C67.5618 111.026 66.5494 106.392 66.3662 104.673C66.238 103.472 66.0798 100.245 65.9949 98.4028C65.9583 97.6108 65.9366 97.0658 65.9366 97.0658L67.7882 96.7109L68.0263 96.665L72.4921 95.8127C72.4921 95.8127 72.6153 96.6048 72.6986 97.2527C72.7401 97.5294 72.7635 97.8082 72.7685 98.0876C72.7386 98.4044 72.7685 99.3961 72.7685 99.3961L72.9201 102.37C72.8211 102.682 72.77 103.005 72.7685 103.331C72.7985 103.71 73.3796 109.131 73.3796 109.131C73.3796 109.131 74.3903 112.366 74.0457 112.599C73.701 112.832 74.5352 115.754 74.5352 115.754Z" fill="#4ECCA3"/>
<path opacity="0.1" d="M67.1206 38.2373C67.004 38.5193 66.9857 39.0088 67.0173 39.5569C66.0982 40.0835 65.0416 40.3527 63.9689 40.3337C62.8962 40.3146 61.8509 40.0081 60.953 39.4492C60.9036 38.6707 60.8052 37.8957 60.6583 37.1284C60.6583 37.1284 67.5202 37.2725 67.1206 38.2373Z" fill="black"/>
<path d="M69.773 34.7363C69.7743 35.3072 69.6799 35.8746 69.4933 36.4171C69.0761 37.6327 68.2207 38.6689 67.0782 39.3426C65.9356 40.0162 64.5796 40.2838 63.2497 40.0982C61.9198 39.9126 60.7017 39.2857 59.8107 38.3283C58.9197 37.3709 58.413 36.1446 58.3804 34.8662C58.3804 34.8218 58.3804 34.7806 58.3804 34.7363C58.3675 34.0167 58.5053 33.3019 58.7858 32.6335C59.0663 31.9651 59.4839 31.3565 60.0142 30.8433C60.5445 30.33 61.1769 29.9224 61.8746 29.6441C62.5722 29.3659 63.3211 29.2226 64.0776 29.2226C64.834 29.2226 65.5829 29.3659 66.2805 29.6441C66.9782 29.9224 67.6106 30.33 68.1409 30.8433C68.6712 31.3565 69.0888 31.9651 69.3693 32.6335C69.6498 33.3019 69.7876 34.0167 69.7747 34.7363H69.773Z" fill="#CF6F80"/>
<path opacity="0.1" d="M64.9775 46.6335C62.7796 45.8208 59.9523 43.1356 60.6583 41.8809C60.8151 41.5643 60.9083 41.2226 60.933 40.8734L63.9419 43.2259L65.8034 44.6786L67.2188 41.2504C67.3387 41.9696 67.4585 42.5178 67.4585 42.5178C67.4585 42.5178 67.0389 43.077 66.7925 43.1071C66.5461 43.1372 68.1312 47.7915 64.9775 46.6335Z" fill="black"/>
<path d="M72.7585 57.0304L70.2459 97.1894L66.969 97.3937L58.4836 74.1079L59.8757 46.4624L60.1687 40.6215L63.9418 43.5697L65.8051 45.0224L67.2621 41.4944L69.9712 43.7408L72.7585 57.0304Z" fill="#4ECCA3"/>
<path opacity="0.1" d="M61.9138 97.3921C61.8022 97.6547 61.7174 97.9268 61.6607 98.2048C59.2763 97.8546 56.9605 97.1663 54.7905 96.1628L54.7455 96.1406L54.7605 95.8856L54.7689 95.7525L55.6014 94.2761C55.6014 94.2761 62.3134 96.4622 61.9138 97.3921Z" fill="black"/>
<path opacity="0.1" d="M67.8265 98.2112C67.217 98.3098 66.6022 98.3764 65.9849 98.4108C65.9483 97.6187 65.9266 97.0737 65.9266 97.0737L67.7782 96.7189L67.8265 98.2112Z" fill="black"/>
<path opacity="0.1" d="M72.6886 97.2606C71.5047 97.5537 69.6765 97.8832 68.0397 97.6773L68.0164 96.6729L72.4821 95.8206C72.4821 95.8206 72.6054 96.6048 72.6886 97.2606Z" fill="black"/>
<path opacity="0.1" d="M68.0097 97.8611C61.1828 98.97 54.9304 95.7905 54.9304 95.7905L54.9903 94.7133C54.9903 94.7133 55.1452 82.5009 54.7156 81.5646C54.286 80.6284 53.9513 75.8806 54.1944 75.1519C54.4375 74.4231 53.3069 63.4955 53.3069 63.4955L53.1237 59.0598L46.42 56.476L49.4172 50.5321C49.822 49.6988 50.1702 48.8416 50.4596 47.9658C50.9808 46.4228 53.4001 44.9067 53.4001 44.9067C53.4001 44.9067 55.8811 43.3923 56.8619 43.4493C57.8426 43.5063 59.1281 42.1091 59.1281 42.1091C60.0772 39.8073 60.9364 40.8496 60.9364 40.8496C60.9364 40.959 60.9364 40.8496 60.8897 41.1902C60.5567 43.717 66.2747 51.7013 66.3563 51.8423L66.9008 64.4618L67.4519 80.4319L68.0097 97.8611Z" fill="black"/>
<path d="M67.8265 97.861C60.9996 98.97 54.7455 95.7905 54.7455 95.7905L54.8071 94.7133C54.8071 94.7133 54.962 82.5009 54.5307 81.5646C54.0995 80.6283 53.7664 75.8806 54.0112 75.1518C54.256 74.4231 53.1237 63.4955 53.1237 63.4955L52.9389 59.0598L46.2319 56.4665L49.229 50.5226C49.633 49.6889 49.9811 48.8318 50.2714 47.9563C50.7909 46.4133 53.212 44.8972 53.212 44.8972C53.212 44.8972 55.693 43.3827 56.672 43.4398C57.6511 43.4968 58.9382 42.0995 58.9382 42.0995C59.889 39.7977 60.9364 40.8401 60.9364 40.8401C60.9364 40.9494 60.8364 40.9985 60.8897 41.1807C61.6224 43.6314 66.0915 51.6917 66.1731 51.8327L66.7242 64.4523L67.2754 80.4224L67.8265 97.861Z" fill="white"/>
<path opacity="0.1" d="M65.9866 52.1924C65.2523 51.9009 61.3626 47.6759 61.3626 47.6759V46.7143C61.2211 46.3974 60.3802 46.5907 59.6975 46.8125L59.9906 40.9716L60.3236 41.2346C61.0529 43.6837 65.9017 52.0514 65.9866 52.1924Z" fill="black"/>
<path d="M66.1714 51.8423C65.4354 51.5508 61.5458 47.3258 61.5458 47.3258V46.3642C61.4042 46.0473 60.5634 46.2406 59.8807 46.4624L60.1754 40.6215L60.5084 40.8845C61.2394 43.3336 66.0898 51.7029 66.1714 51.8423Z" fill="white"/>
<path opacity="0.1" d="M54.9304 72.9134C55.022 72.9134 59.6776 72.4477 59.6776 72.4477C59.6776 72.4477 62.4966 77.7214 62.3118 79.0046C62.1269 80.2878 61.7922 81.4236 60.6583 81.2224C59.5244 81.0212 54.5557 81.3809 54.5557 81.3809L54.9304 72.9134Z" fill="black"/>
<path d="M54.7456 72.5633C54.8371 72.5633 59.4928 72.0975 59.4928 72.0975C59.4928 72.0975 62.3101 77.3729 62.1269 78.6545C61.9438 79.9361 61.6058 81.0735 60.4735 80.8723C59.3412 80.6711 54.3709 81.0307 54.3709 81.0307L54.7456 72.5633Z" fill="white"/>
<path d="M58.2539 70.0872C58.2539 70.0872 62.5265 72.2718 62.6181 72.9387C62.7097 73.6057 60.4435 72.6473 59.9539 72.5316C59.6317 72.4577 59.3037 72.409 58.9732 72.3859L55.7079 72.4698L58.2539 70.0872Z" fill="#CF6F80"/>
<path opacity="0.1" d="M64.7944 52.4648C65.0427 52.4648 65.244 52.2733 65.244 52.0371C65.244 51.8009 65.0427 51.6094 64.7944 51.6094C64.5461 51.6094 64.3448 51.8009 64.3448 52.0371C64.3448 52.2733 64.5461 52.4648 64.7944 52.4648Z" fill="black"/>
<path d="M64.7944 52.2906C65.0427 52.2906 65.244 52.0991 65.244 51.8628C65.244 51.6266 65.0427 51.4351 64.7944 51.4351C64.5461 51.4351 64.3448 51.6266 64.3448 51.8628C64.3448 52.0991 64.5461 52.2906 64.7944 52.2906Z" fill="#3F3D56"/>
<path opacity="0.1" d="M65.6219 70.9807C65.8702 70.9807 66.0715 70.7892 66.0715 70.553C66.0715 70.3167 65.8702 70.1252 65.6219 70.1252C65.3736 70.1252 65.1724 70.3167 65.1724 70.553C65.1724 70.7892 65.3736 70.9807 65.6219 70.9807Z" fill="black"/>
<path d="M65.6219 70.8049C65.8702 70.8049 66.0715 70.6134 66.0715 70.3771C66.0715 70.1409 65.8702 69.9494 65.6219 69.9494C65.3736 69.9494 65.1724 70.1409 65.1724 70.3771C65.1724 70.6134 65.3736 70.8049 65.6219 70.8049Z" fill="#3F3D56"/>
<path opacity="0.1" d="M65.2423 61.7228C65.4906 61.7228 65.6919 61.5313 65.6919 61.295C65.6919 61.0588 65.4906 60.8673 65.2423 60.8673C64.994 60.8673 64.7927 61.0588 64.7927 61.295C64.7927 61.5313 64.994 61.7228 65.2423 61.7228Z" fill="black"/>
<path d="M65.2423 61.5485C65.4906 61.5485 65.6919 61.357 65.6919 61.1208C65.6919 60.8846 65.4906 60.6931 65.2423 60.6931C64.994 60.6931 64.7927 60.8846 64.7927 61.1208C64.7927 61.357 64.994 61.5485 65.2423 61.5485Z" fill="#3F3D56"/>
<path d="M75.6059 72.2972C75.6059 72.2972 75.9122 72.7344 75.6059 72.9388C75.2995 73.1431 75.6358 73.6374 75.6358 73.6374C75.6358 73.6374 74.8716 74.0635 75.2079 74.4469C75.5443 74.8303 75.3311 76.5618 75.3311 76.5618L74.412 78.0097C74.412 78.0097 74.4669 78.9428 74.4703 80.2038C74.4703 82.1713 74.3487 84.9373 73.676 86.1983L73.7693 96.5446C73.7693 96.5446 70.5506 97.663 67.8565 97.3224L67.4569 80.7202C67.4569 80.7202 68.0397 71.3055 68.2545 69.4995C68.3802 68.5619 68.4314 67.6167 68.4076 66.6717C68.4076 66.6717 68.3161 63.8456 68.008 62.5339C68.008 62.5339 67.675 56.8514 67.6417 55.2783C67.6267 54.5259 67.6683 52.3302 67.715 50.2422C67.7666 47.9594 67.8249 45.8065 67.8249 45.8065L67.2171 41.2314C67.2171 41.2314 67.8249 41.1728 68.008 41.4057C68.0901 41.4786 68.1793 41.5439 68.2744 41.6005C69.3235 42.2754 73.03 44.3507 73.03 44.3507C73.03 44.3507 75.0814 45.1269 75.5726 46.239C76.0638 47.3511 76.4051 48.14 76.6432 48.4569C76.8813 48.7737 77.0112 50.2628 77.0112 50.2628C77.0112 50.2628 77.7172 53.0035 78.2684 53.4676C78.8195 53.9318 79.2225 56.8847 79.2225 56.8847L74.352 60.5283C74.352 60.5283 73.9241 66.5894 73.8325 66.8238C73.741 67.0583 75.6059 72.2972 75.6059 72.2972Z" fill="white"/>
<path d="M75.7907 72.2971C75.7907 72.2971 76.0954 72.7344 75.7907 72.9387C75.486 73.1431 75.819 73.6374 75.819 73.6374C75.819 73.6374 75.0597 74.0683 75.3927 74.4516C75.7258 74.835 75.5159 76.5665 75.5159 76.5665L74.5968 78.0145C74.5968 78.0145 74.6518 78.9475 74.6568 80.2085C74.6568 82.1761 74.5352 84.9421 73.8625 86.2031L73.9541 96.5493C73.9541 96.5493 70.7305 97.6678 68.0397 97.3272L67.6417 80.725C67.6417 80.725 68.2245 71.3102 68.4393 69.5042C68.5651 68.5667 68.6158 67.6214 68.5908 66.6765C68.5908 66.6765 68.4992 63.8503 68.1929 62.5386C68.1929 62.5386 67.8598 56.8562 67.8249 55.2831C67.8099 54.5306 67.8532 52.3349 67.8981 50.247C67.9497 47.9642 68.008 45.8113 68.008 45.8113L67.2054 41.1744C67.2054 41.1744 68.008 41.1744 68.1929 41.4104C68.2741 41.4842 68.3634 41.5495 68.4593 41.6053C69.5083 42.2801 73.2164 44.3554 73.2164 44.3554C73.2164 44.3554 75.2662 45.1317 75.7574 46.2437C76.2486 47.3558 76.5899 48.1448 76.8297 48.4616C77.0695 48.7784 77.196 50.2676 77.196 50.2676C77.196 50.2676 77.902 53.0082 78.4532 53.4724C79.0043 53.9365 79.4023 56.8831 79.4023 56.8831L74.5319 60.5267C74.5319 60.5267 74.1039 66.5878 74.0107 66.8222C73.9175 67.0567 75.7907 72.2971 75.7907 72.2971Z" fill="white"/>
<path opacity="0.1" d="M69.9578 47.1563L70.3974 48.3761L68.0829 50.5939C68.1346 48.3127 68.1928 46.1582 68.1928 46.1582L67.3903 41.5213C67.3903 41.5213 68.1928 41.5213 68.3777 41.7574C68.4587 41.8309 68.5481 41.8958 68.6441 41.9506L70.6122 47.3527L69.9578 47.1563Z" fill="black"/>
<path d="M69.773 46.8061L70.2143 48.0259L67.8998 50.2438C67.9514 47.961 68.0097 45.8081 68.0097 45.8081L67.2054 41.1712C67.2054 41.1712 68.0097 41.1712 68.1929 41.4072C68.2745 41.4806 68.3638 41.5459 68.4593 41.6021L70.4291 47.0026L69.773 46.8061Z" fill="white"/>
<path opacity="0.1" d="M69.773 34.7363C69.7743 35.3072 69.6799 35.8746 69.4933 36.4171C69.4618 36.4218 69.4297 36.4204 69.3988 36.4131C69.3679 36.4057 69.3389 36.3925 69.3135 36.3743C69.2702 34.9486 68.5325 33.6099 67.625 32.4709C67.3703 32.127 67.0614 31.8225 66.7092 31.5679C66.3532 31.3135 65.9104 31.1944 65.4671 31.2337C64.9675 31.2986 64.5263 31.6218 64.0218 31.663C63.3557 31.7153 62.7596 31.2764 62.0986 31.2543C61.8298 31.2567 61.5647 31.3136 61.321 31.4213C61.0772 31.5289 60.8604 31.6847 60.6849 31.8784C60.3376 32.2693 60.0796 32.7246 59.9273 33.2155C59.6655 33.9598 59.5229 34.7374 59.5044 35.522C59.496 35.9656 59.4511 36.5217 59.0181 36.6832C59.0507 36.357 59.0118 36.0279 58.9037 35.7168C58.7957 35.4056 58.6209 35.1192 58.3904 34.8757L58.3804 34.8662C58.3804 34.8218 58.3804 34.7806 58.3804 34.7363C58.3675 34.0167 58.5053 33.3019 58.7858 32.6335C59.0663 31.9651 59.4839 31.3565 60.0142 30.8433C60.5445 30.33 61.1769 29.9224 61.8746 29.6441C62.5722 29.3659 63.3211 29.2226 64.0776 29.2226C64.834 29.2226 65.5829 29.3659 66.2805 29.6441C66.9782 29.9224 67.6106 30.33 68.1409 30.8433C68.6712 31.3565 69.0888 31.9651 69.3693 32.6335C69.6498 33.3019 69.7876 34.0167 69.7747 34.7363H69.773Z" fill="black"/>
<path d="M66.4362 26.1294C65.5709 25.7422 64.5868 25.669 63.6688 25.9235C63.2075 26.0534 62.7729 26.2641 62.305 26.3702C61.306 26.5999 60.1404 26.3512 59.2829 26.9073C58.8067 27.2241 58.5203 27.7247 58.2539 28.2111L57.5878 29.4182C57.2248 30.0788 56.8585 30.7505 56.707 31.4776C56.5555 32.2048 56.647 33.019 57.1316 33.6036C57.4846 34.0297 58.0058 34.2975 58.3887 34.6983C58.6182 34.9421 58.7922 35.2283 58.8999 35.5391C59.0077 35.8498 59.0468 36.1784 59.0148 36.5042C59.4494 36.3458 59.491 35.7882 59.501 35.3446C59.5196 34.5599 59.6622 33.7824 59.924 33.038C60.0759 32.5471 60.334 32.0917 60.6816 31.701C60.8572 31.5075 61.074 31.3517 61.3178 31.2441C61.5615 31.1365 61.8265 31.0795 62.0952 31.0768C62.7613 31.099 63.3591 31.5362 64.0184 31.484C64.518 31.4444 64.9609 31.1196 65.4637 31.0562C65.9071 31.0163 66.3502 31.1355 66.7059 31.3905C67.0579 31.6446 67.3663 31.9493 67.62 32.2935C68.5292 33.4325 69.2668 34.768 69.3101 36.1969C69.4983 36.3284 69.7697 36.1573 69.8629 35.9545C69.9562 35.7517 69.9595 35.5141 70.0777 35.3209C70.2143 35.0975 70.4757 34.9787 70.6805 34.8107C71.2 34.3846 71.3299 33.667 71.3099 33.0159C71.2899 32.3648 71.1567 31.7042 71.2866 31.0642C71.3648 30.6713 71.5413 30.3038 71.6379 29.9156C71.7345 29.5275 71.7462 29.0919 71.518 28.7576C71.185 28.2665 70.484 28.1699 69.8729 28.1239C69.1786 28.0669 68.5575 28.1398 68.1146 27.5837C67.9067 27.2936 67.6727 27.0211 67.4152 26.7695C67.327 26.6871 66.4362 26.1643 66.4362 26.1294Z" fill="#512E4E"/>
<path opacity="0.1" d="M48.3382 59.5366L46.5982 56.476L46.0471 61.1984C46.0471 61.1984 46.3534 63.2959 46.2918 63.6174C46.2302 63.939 47.5473 66.8222 47.5473 66.8222C47.5473 66.8222 51.8982 74.195 53.6749 74.5752L59.6775 70.4944L58.0857 68.5712C58.0857 68.5712 57.5346 68.3668 57.3964 68.5712C57.3964 68.5712 54.4408 63.7331 54.1344 63.383C53.8281 63.0329 53.888 62.3343 53.888 62.3343C53.888 62.3343 53.4284 61.8685 53.5816 61.4313C53.7348 60.994 52.6941 59.478 52.6941 59.478L53.6432 58.6336L48.3382 59.5366Z" fill="black"/>
<path d="M46.6898 56.1274L46.2302 56.476L45.6791 61.1984C45.6791 61.1984 45.9855 63.2958 45.9238 63.6174C45.8622 63.939 47.181 66.8222 47.181 66.8222C47.181 66.8222 51.5302 74.195 53.3069 74.5752L59.3112 70.4944L57.7177 68.5712C57.7177 68.5712 57.1666 68.3668 57.0284 68.5712C57.0284 68.5712 54.0728 63.7331 53.7665 63.383C53.4601 63.0329 53.5217 62.3343 53.5217 62.3343C53.5217 62.3343 53.0621 61.8685 53.2153 61.4313C53.3685 60.994 52.3262 59.478 52.3262 59.478L53.2753 58.6336L46.6898 56.1274Z" fill="white"/>
<path opacity="0.1" d="M75.2079 74.6275C75.5409 75.0124 75.3311 76.7408 75.3311 76.7408L74.412 78.1887C74.412 78.1887 74.4669 79.1234 74.4703 80.3828L72.925 80.8422C72.7854 80.8837 72.6374 80.8928 72.4932 80.8688C72.3491 80.8448 72.2132 80.7884 72.0966 80.7042C71.9801 80.62 71.8865 80.5105 71.8235 80.3849C71.7605 80.2593 71.73 80.1211 71.7345 79.982L72.0009 71.8061L75.6058 73.1178C75.2995 73.3205 75.6358 73.818 75.6358 73.818C75.6358 73.818 74.8715 74.2425 75.2079 74.6275Z" fill="black"/>
<path d="M75.3927 74.4516C75.7257 74.8366 75.5159 76.5665 75.5159 76.5665L74.5968 78.0145C74.5968 78.0145 74.6517 78.9475 74.6567 80.2085L73.0832 80.6759C72.9465 80.7163 72.8015 80.7251 72.6605 80.7015C72.5194 80.6778 72.3863 80.6225 72.2723 80.54C72.1583 80.4576 72.0666 80.3504 72.0049 80.2275C71.9432 80.1045 71.9133 79.9693 71.9176 79.8331L72.1857 71.6318L75.7923 72.9435C75.4843 73.1463 75.8206 73.6421 75.8206 73.6421C75.8206 73.6421 75.0597 74.0683 75.3927 74.4516Z" fill="white"/>
<path d="M76.5866 70.5546C76.5866 70.5546 76.3419 72.0421 75.7291 72.1292C75.1164 72.2164 74.8416 74.5356 74.2305 74.4532C73.6194 74.3709 74.0241 72.2972 74.0457 71.8948C74.0674 71.4924 73.3797 69.8259 73.8942 69.4472C74.4087 69.0686 76.0372 69.4472 76.0372 69.4472L76.5866 70.5546Z" fill="#CF6F80"/>
<path opacity="0.1" d="M77.8904 59.0994L79.046 56.8815C79.046 56.8815 79.5055 58.5718 79.5055 59.4748C79.5055 60.3778 80.1482 60.4665 80.1482 60.4665C80.1482 60.4665 80.8526 61.2586 80.4813 61.8352C80.11 62.4119 79.9601 63.8471 79.9601 63.8471C79.9601 63.8471 80.0816 66.5862 79.5305 66.9648C78.9794 67.3434 78.8645 68.248 78.8645 68.248C78.8645 68.248 77.8521 69.9668 77.8837 70.3755C77.9153 70.7843 76.475 73.5518 76.475 73.5518C76.475 73.5518 77.1794 70.1126 73.0749 68.6266C73.0749 68.6266 73.0433 67.4591 73.3496 67.1391C73.656 66.8191 74.1339 66.6733 73.8342 65.0559C73.5345 63.4384 73.7476 61.5057 73.7476 61.1176C73.7476 60.7295 74.6667 58.3089 74.6667 58.3089L77.8904 59.0994Z" fill="black"/>
<path d="M78.3899 56.5647L79.399 56.8815C79.399 56.8815 79.8602 58.5718 79.8602 59.4748C79.8602 60.3778 80.5029 60.4665 80.5029 60.4665C80.5029 60.4665 81.2072 61.2586 80.8359 61.8352C80.4646 62.4119 80.3164 63.8472 80.3164 63.8472C80.3164 63.8472 80.438 66.5862 79.8868 66.9648C79.3357 67.3434 79.2125 68.248 79.2125 68.248C79.2125 68.248 78.2017 69.9668 78.2334 70.3756C78.265 70.7843 76.823 73.5518 76.823 73.5518C76.823 73.5518 77.529 70.1126 73.4229 68.6266C73.4229 68.6266 73.3929 67.4591 73.6993 67.1391C74.0057 66.8191 74.4836 66.6733 74.1839 65.0559C73.8841 63.4384 74.0973 61.5057 74.0973 61.1176C74.0973 60.7295 75.0164 58.3089 75.0164 58.3089L78.3899 56.5647Z" fill="white"/>
<path opacity="0.1" d="M56.1026 114.05C56.1026 114.05 57.7111 113.088 58.7668 113.787C59.8224 114.485 56.1026 114.05 56.1026 114.05Z" fill="black"/>
<path opacity="0.1" d="M68.6008 111.076C68.6008 111.076 70.0245 110.902 71.22 112.127C72.4155 113.351 68.6008 111.076 68.6008 111.076Z" fill="black"/>
<g opacity="0.1">
<path opacity="0.1" d="M70.6838 34.4638C70.479 34.6317 70.2159 34.7521 70.0794 34.9755C69.9628 35.1672 69.9595 35.4032 69.8663 35.6092C69.773 35.8151 69.5016 35.983 69.3135 35.8531C69.2702 34.4274 68.5309 33.0887 67.6234 31.9481C67.3697 31.6039 67.0613 31.2993 66.7092 31.0451C66.3529 30.7902 65.9093 30.671 65.4654 30.7109C64.9659 30.7758 64.5263 31.099 64.0218 31.1386C63.3557 31.1925 62.758 30.7536 62.0969 30.7315C61.8283 30.734 61.5633 30.7912 61.3198 30.8991C61.0763 31.007 60.8598 31.1632 60.6849 31.3572C60.3373 31.7473 60.0793 32.2022 59.9273 32.6927C59.6656 33.437 59.5231 34.2146 59.5044 34.9992C59.4944 35.4412 59.4511 35.9925 59.0215 36.1573C59.0315 36.2743 59.0315 36.3919 59.0215 36.509C59.4544 36.3506 59.4977 35.7929 59.5077 35.3494C59.5263 34.5647 59.6688 33.7871 59.9306 33.0428C60.0826 32.5518 60.3406 32.0964 60.6882 31.7057C60.8635 31.5123 61.0801 31.3565 61.3235 31.2489C61.567 31.1413 61.8318 31.0842 62.1003 31.0816C62.7663 31.1038 63.3657 31.541 64.0251 31.4887C64.5246 31.4491 64.9675 31.1243 65.4687 31.061C65.9126 31.0211 66.3562 31.1403 66.7126 31.3952C67.0646 31.6494 67.373 31.954 67.6267 32.2982C68.5342 33.4373 69.2735 34.7727 69.3168 36.2016C69.5049 36.3331 69.7763 36.162 69.8696 35.9593C69.9628 35.7565 69.9662 35.5189 70.0827 35.3256C70.2193 35.1022 70.4824 34.9834 70.6872 34.8155C71.2067 34.3893 71.3365 33.6717 71.3166 33.0206C71.3166 33 71.3166 32.9794 71.3166 32.9604C71.2849 33.5244 71.1267 34.0994 70.6838 34.4638Z" fill="black"/>
<path opacity="0.1" d="M58.3921 34.3513C58.0091 33.9505 57.4863 33.6828 57.1349 33.2583C56.8391 32.8824 56.6701 32.43 56.6504 31.9608C56.598 32.5471 56.7701 33.1317 57.1349 33.6068C57.4863 34.0329 58.0091 34.3006 58.3921 34.7014C58.7598 35.0935 58.9806 35.5904 59.0198 36.1145C59.0453 35.7956 59.0029 35.475 58.895 35.172C58.7871 34.869 58.6161 34.5899 58.3921 34.3513Z" fill="black"/>
<path opacity="0.1" d="M71.6413 29.5687C71.5431 29.9568 71.3682 30.3259 71.2883 30.7172C71.241 30.9787 71.2237 31.2443 71.2367 31.5093C71.2423 31.3583 71.2595 31.208 71.2883 31.0594C71.3682 30.6665 71.5431 30.299 71.6413 29.9109C71.6986 29.6968 71.7171 29.475 71.6962 29.255C71.6859 29.3607 71.6675 29.4655 71.6413 29.5687Z" fill="black"/>
</g>
<path opacity="0.1" d="M26.1009 120.491C35.0615 120.491 42.3256 119.381 42.3256 118.012C42.3256 116.643 35.0615 115.533 26.1009 115.533C17.1402 115.533 9.87616 116.643 9.87616 118.012C9.87616 119.381 17.1402 120.491 26.1009 120.491Z" fill="#4ECCA3"/>
<path d="M26.6237 70.5181H25.5797V92.882H26.6237V70.5181Z" fill="#535461"/>
<path d="M33.1841 92.8139L33.1192 93.8214L33.026 95.2472L32.9877 95.8396L32.8961 97.2654L32.8561 97.8579L32.7629 99.2836L31.7105 115.453C31.6648 116.149 31.3421 116.802 30.8082 117.279C30.2743 117.757 29.5693 118.023 28.8366 118.023H23.3651C22.6326 118.023 21.9277 117.757 21.3941 117.279C20.8604 116.802 20.5381 116.149 20.4928 115.453L19.4454 99.2726L19.3522 97.8468L19.3139 97.2543L19.2206 95.8286L19.1823 95.2361L19.0891 93.8103L19.0225 92.8028C19.0109 92.6089 19.0411 92.4147 19.1112 92.2323C19.1813 92.0499 19.2899 91.883 19.4302 91.742C19.5705 91.6009 19.7397 91.4886 19.9273 91.4119C20.1149 91.3353 20.3169 91.2959 20.5211 91.2962H31.7122C31.9156 91.2979 32.1164 91.3392 32.3024 91.4176C32.4883 91.496 32.6554 91.6098 32.7934 91.752C32.9313 91.8942 33.0371 92.0618 33.1043 92.2444C33.1716 92.4271 33.1987 92.6209 33.1841 92.8139Z" fill="#3F3D56"/>
<path d="M33.1192 93.8214L33.026 95.2424H19.1757L19.0825 93.8214H33.1192Z" fill="#9D9CB5"/>
<path d="M32.9877 95.8349L32.8961 97.2575H19.3072L19.214 95.8349H32.9877Z" fill="#9D9CB5"/>
<path d="M32.8561 97.8515L32.7645 99.2726H19.4388L19.3455 97.8515H32.8561Z" fill="#9D9CB5"/>
<path d="M17.4889 78.9C23.5682 83.0854 26.1058 89.6312 26.1058 89.6312C26.1058 89.6312 18.7794 89.392 12.6985 85.2066C6.61751 81.0212 4.0849 74.477 4.0849 74.477C4.0849 74.477 11.408 74.7146 17.4889 78.9Z" fill="#4ECCA3"/>
<path d="M4.07996 74.477C4.07996 74.477 11.6861 78.4929 14.1255 81.8181C16.5649 85.1433 26.1059 89.6312 26.1059 89.6312" stroke="#535461" stroke-width="2" stroke-miterlimit="10"/>
<path d="M21.4136 70.469C24.7221 72.7455 26.1058 76.3083 26.1058 76.3083C26.1058 76.3083 22.1179 76.1784 18.8077 73.9019C15.4975 71.6255 14.1171 68.0611 14.1171 68.0611C14.1171 68.0611 18.1034 68.191 21.4136 70.469Z" fill="#4ECCA3"/>
<path d="M14.1171 68.0611C14.1171 68.0611 18.2566 70.2472 19.5836 72.0564C20.9107 73.8655 26.1058 76.3083 26.1058 76.3083" stroke="#535461" stroke-width="2" stroke-miterlimit="10"/>
<path d="M30.9097 76.1277C27.1083 80.1024 26.304 85.2969 26.304 85.2969C26.304 85.2969 31.664 84.0454 35.4621 80.0691C39.2602 76.0928 40.0677 70.8999 40.0677 70.8999C40.0677 70.8999 34.7111 72.153 30.9097 76.1277Z" fill="#4ECCA3"/>
<path d="M40.071 70.9015C40.071 70.9015 35.119 74.976 33.8602 77.7832C32.6014 80.5903 26.304 85.2969 26.304 85.2969" stroke="#535461" stroke-width="2" stroke-miterlimit="10"/>
<path d="M170.455 74.7289C170.455 74.7289 167.706 61.7164 168.758 60.0974C168.758 60.0974 168.796 58.5925 168.733 56.674C168.733 56.6011 168.733 56.5283 168.733 56.4538C168.918 56.5712 169.111 56.6771 169.311 56.7706C170.281 57.2446 171.394 57.3813 172.458 57.1572L171.625 56.2748C171.426 56.0641 171.217 55.836 171.174 55.5572C171.131 55.2783 171.251 55.0296 171.354 54.7809C172.145 52.8799 172.187 50.4894 170.663 49.0383C169.376 47.8184 169.063 46.2438 167.666 45.1301C166.645 44.3142 166.084 43.1182 165.554 41.9617C165.107 40.9843 164.655 39.9989 164.399 38.9629C164.199 38.1534 164.119 37.3153 163.844 36.5248C163.57 35.7343 163.055 34.966 162.251 34.6127C161.965 34.4876 161.646 34.4163 161.385 34.25C161.042 34.0298 160.836 33.6717 160.587 33.3581C159.327 31.7739 155.106 32.707 153.108 33.3501C152.565 33.5121 152.062 33.7773 151.629 34.1296L151.648 34.101C151.663 34.0773 151.681 34.0535 151.698 34.0298C151.479 34.198 151.29 34.3986 151.138 34.6238C150.847 35.0626 150.725 35.5743 150.482 36.0496C150.189 36.612 148.559 38.1819 149.26 38.814C149.309 38.8564 149.365 38.8907 149.426 38.9154C149.689 39.0196 149.979 39.0471 150.259 38.9946L150.229 39.0627C149.989 39.6204 149.867 40.2171 149.868 40.8195C149.868 43.4224 152.124 45.5325 154.909 45.5325C155.433 45.533 155.954 45.4565 156.453 45.3059C156.465 45.3661 156.475 45.4263 156.486 45.4865C156.486 45.5103 156.495 45.5341 156.498 45.5578L156.41 45.6751C156.405 45.6678 156.4 45.6609 156.395 45.6545L153.781 49.1302C153.381 49.3979 151.08 50.9821 150.95 52.1702C150.813 53.4708 150.677 54.9932 150.677 54.9932L150.658 55.3195C150.544 55.4104 150.411 55.4765 150.267 55.5134C150.123 55.5504 149.973 55.5572 149.826 55.5334C149.01 55.4067 149.01 58.3849 149.01 58.3849C149.01 58.3849 148.467 58.8602 148.094 58.4483C147.721 58.0364 146.736 59.4321 146.736 59.4321L140.558 59.6855L140.416 59.6935L140.083 58.7128C140.048 58.6094 139.97 58.5236 139.868 58.4741C139.766 58.4245 139.648 58.4153 139.539 58.4483C139.513 58.4564 139.488 58.4664 139.464 58.4784L139.441 58.4911L139.397 58.5196L139.376 58.5386C139.364 58.5489 139.353 58.56 139.342 58.5719L139.323 58.594L139.313 58.6035C139.274 58.6541 139.249 58.7126 139.238 58.7742C139.228 58.8358 139.233 58.8989 139.253 58.9584L139.539 59.7996C138.347 60.0277 137.128 60.6709 138.122 62.442L133.083 61.5564L134.714 62.8586L143.129 64.5109C143.017 64.701 143.091 64.9767 143.439 65.3648C144.937 67.0393 147.668 67.494 148.767 67.6112C149.057 68.2288 149.42 68.8134 149.848 69.3538L149.753 71.0219C149.753 71.0219 146.97 83.7365 146.461 84.3813C146.718 84.104 146.953 83.8091 147.165 83.4989C146.358 86.1112 145.229 89.6867 144.932 90.2222C144.456 91.0776 144.015 94.5391 144.558 94.7608C144.724 94.829 145.2 94.7957 145.88 94.7466V95.0333L145.85 105.899C145.85 105.899 145.986 112.564 145.612 113.199C145.237 113.834 145.137 115.167 145.137 115.167C145.137 115.167 143.638 117.795 142.451 118.851C142.443 118.86 142.434 118.867 142.425 118.874L142.388 118.626C142.388 118.626 140.961 120.341 137.804 120.244C137.804 120.244 135.904 121.419 138.721 121.483C141.539 121.546 145.137 121.388 145.137 121.388C145.137 121.388 147.65 117.744 149.754 118.219V120.981H150.399V118.175C150.698 117.988 150.953 117.745 151.151 117.461C151.348 117.177 151.482 116.858 151.546 116.523C151.601 116.177 151.561 115.824 151.429 115.499C151.297 115.173 151.078 114.885 150.793 114.664C150.666 114.555 150.563 114.421 150.492 114.271C150.422 114.122 150.384 113.96 150.382 113.796L150.359 113.815C150.359 113.76 150.344 113.703 150.337 113.644C150.152 112.218 149.921 109.277 150.738 107.1C151.859 104.115 152.199 99.9585 151.383 97.484C151.12 96.6931 150.903 95.8886 150.735 95.0745C150.715 94.9715 150.697 94.8733 150.68 94.7814C151.238 94.8532 151.79 94.959 152.334 95.0983C154.223 95.5941 158.358 95.686 161.888 95.6591C161.896 95.7509 161.906 95.8476 161.918 95.9442C161.981 96.6159 162.112 97.2802 162.311 97.9276C162.754 99.1949 162.957 104.782 162.957 104.782C162.957 104.782 163.528 109.376 163.217 111.246C163.05 112.285 162.884 113.329 162.789 114.378V114.398C162.789 114.398 161.853 116.933 161.169 118.31C161.152 118.345 161.134 118.379 161.117 118.413C160.935 118.428 160.755 118.466 160.582 118.525C160.582 118.525 159.665 120.268 158.751 120.556C157.837 120.844 158.14 121.793 160.209 121.445C162.279 121.096 165.405 120.811 165.405 120.811L165.539 119.034L166.176 118.276L166.009 120.049L166.687 119.922L166.597 117.766L167.637 116.527C167.637 116.527 168.895 115.463 167.026 113.369V113.415C167.006 113.384 166.988 113.353 166.966 113.323V113.313C166.657 112.857 166.41 112.006 166.862 110.496C167.677 107.769 168.152 105.292 168.152 105.292C168.152 105.292 169.974 98.6595 167.784 95.5212H167.881C167.656 95.0796 167.498 94.6104 167.409 94.1272C167.398 94.0701 167.388 94.0115 167.379 93.9513C169 93.8626 170.59 93.5838 171.887 92.9818C171.882 92.9755 171.101 77.2351 170.455 74.7289ZM149.886 63.7505V63.7822L149.553 63.7981L149.886 63.7505ZM148.744 63.901C148.689 63.9126 148.638 63.9359 148.594 63.9692C148.451 64.1619 148.361 64.3858 148.332 64.6203L147.813 64.5094C147.813 64.5094 147.448 64.4349 146.924 64.3509L146.676 64.1133C147.358 64.0595 148.068 63.9802 148.744 63.901Z" fill="url(#paint1_linear)"/>
<path d="M165.932 117.788L165.734 120.033L166.399 119.906L166.299 117.472L165.932 117.788Z" fill="#1D2366"/>
<path d="M150.775 107.13C149.974 109.3 150.201 112.23 150.38 113.652C150.447 114.178 150.509 114.498 150.509 114.498C150.509 114.498 149.311 117.093 149.212 117.191C149.112 117.289 145.688 119.278 145.688 119.278L143.295 120.607C143.295 120.607 140.868 119.594 142.032 119.246C142.269 119.155 142.484 119.016 142.659 118.839C143.825 117.785 145.289 115.167 145.289 115.167C145.289 115.167 145.388 113.837 145.755 113.205C146.121 112.573 145.988 105.931 145.988 105.931L146.016 95.103V93.6915L150.57 93.7232C150.599 94.2024 150.665 94.6789 150.767 95.1489C150.93 95.9603 151.142 96.7621 151.401 97.5506C152.204 100.02 151.871 104.157 150.775 107.13Z" fill="#FFB0B1"/>
<path opacity="0.1" d="M150.509 114.498C150.509 114.498 149.311 117.093 149.212 117.191C149.112 117.289 145.688 119.278 145.688 119.278L143.295 120.607C143.295 120.607 140.868 119.594 142.032 119.246C142.269 119.155 142.484 119.016 142.659 118.839L142.763 119.531L143.56 119.499L150.387 113.655C150.447 114.178 150.509 114.498 150.509 114.498Z" fill="black"/>
<path d="M150.425 113.803L143.56 119.686L142.763 119.718L142.596 118.609C142.596 118.609 141.201 120.317 138.1 120.222C138.1 120.222 136.239 121.392 138.998 121.456C141.757 121.519 145.28 121.361 145.28 121.361C145.28 121.361 147.741 117.717 149.801 118.192V120.944H150.434V118.167C150.728 117.979 150.979 117.736 151.172 117.452C151.365 117.169 151.495 116.852 151.556 116.52C151.611 116.177 151.572 115.827 151.443 115.503C151.315 115.179 151.101 114.892 150.822 114.669C150.697 114.558 150.598 114.424 150.53 114.275C150.461 114.126 150.426 113.965 150.425 113.803Z" fill="#1D2366"/>
<path d="M166.565 110.514C166.122 112.019 166.364 112.866 166.667 113.321V113.331C167.055 113.892 167.326 114.52 167.463 115.179L167.489 115.322L164.366 119.655L162.671 120.288C162.671 120.288 159.945 119.403 160.443 119.149C160.568 119.087 160.762 118.758 160.985 118.303C161.651 116.933 162.571 114.405 162.571 114.405V114.384C162.667 113.34 162.82 112.299 162.99 111.263C163.295 109.399 162.735 104.822 162.735 104.822C162.735 104.822 162.536 99.2567 162.103 97.991C161.907 97.3474 161.777 96.6875 161.715 96.0202C161.625 95.2281 161.605 94.5755 161.605 94.5755C161.605 94.5755 163.4 92.1992 166.69 94.7656C166.953 94.9703 167.185 95.2092 167.378 95.4753C169.651 98.5518 167.821 105.329 167.821 105.329C167.821 105.329 167.363 107.794 166.565 110.514Z" fill="#FFB0B1"/>
<path opacity="0.1" d="M167.494 115.322L164.371 119.655L162.676 120.288C162.676 120.288 159.95 119.403 160.448 119.149C160.573 119.087 160.767 118.758 160.99 118.303C162.144 118.294 162.742 119.339 162.742 119.339L164.204 119.118C164.204 119.118 166.132 115.512 166.565 115.292C166.998 115.072 166.632 113.646 166.632 113.646V113.283C166.643 113.296 166.653 113.31 166.667 113.323V113.332C167.055 113.894 167.326 114.521 167.463 115.181L167.494 115.322Z" fill="black"/>
<path d="M162.842 119.433C162.842 119.433 162.009 117.979 160.414 118.516C160.414 118.516 159.517 120.258 158.619 120.54C157.722 120.822 158.022 121.773 160.05 121.426C162.078 121.079 165.135 120.792 165.135 120.792L165.268 119.019L167.329 116.521C167.329 116.521 168.558 115.461 166.73 113.375V113.738C166.73 113.738 167.096 115.163 166.663 115.384C166.231 115.604 164.309 119.211 164.309 119.211L162.842 119.433Z" fill="#1D2366"/>
<path opacity="0.1" d="M150.575 93.72C150.604 94.1992 150.67 94.6757 150.772 95.1458C148.897 94.8844 147.157 95.0143 146.016 95.0998V93.6883L150.575 93.72Z" fill="black"/>
<path opacity="0.1" d="M167.563 95.8697C167.563 95.8697 164.898 95.9933 161.721 96.0187C161.631 95.2266 161.612 94.5739 161.612 94.5739C161.612 94.5739 163.406 92.1976 166.697 94.764C166.96 94.9687 167.191 95.2076 167.384 95.4737C167.436 95.6088 167.496 95.741 167.563 95.8697Z" fill="black"/>
<path d="M167.563 95.5846C167.563 95.5846 155.894 96.1216 152.337 95.1727C148.78 94.2238 145.255 95.046 144.724 94.8258C144.193 94.6056 144.624 91.1568 145.09 90.3029C145.557 89.4491 148.114 80.8137 148.114 80.8137L150.575 68.606L153.168 67.9264L153.351 67.8773L157.868 66.6923L161.179 65.8226C161.179 65.8226 167.761 90.2713 167.196 92.074C166.991 92.7644 166.958 93.4906 167.1 94.1953C167.186 94.6765 167.342 95.144 167.563 95.5846Z" fill="#1D2366"/>
<path d="M141.997 60.2574C141.997 60.2574 139.666 62.6337 141.431 63.958C143.196 65.2824 144.356 64.0848 144.356 64.0848L141.997 60.2574Z" fill="#C7DAF5"/>
<path opacity="0.1" d="M141.997 60.2574C141.997 60.2574 139.666 62.6337 141.431 63.958C143.196 65.2824 144.356 64.0848 144.356 64.0848L141.997 60.2574Z" fill="black"/>
<path d="M160.831 44.6342C160.831 44.6342 160.558 44.8814 160.146 45.2457C159.56 45.7669 158.693 46.5289 157.923 47.1673C156.858 48.0497 155.978 48.6977 156.293 48.1448C156.608 47.5919 156.548 46.6287 156.391 45.7273C156.38 45.6671 156.37 45.6069 156.358 45.5483C156.229 44.8863 156.057 44.2324 155.844 43.5903C155.844 43.5903 157.565 41.4738 158.518 40.6389C158.872 40.3221 159.121 40.1922 159.136 40.4124C159.152 40.7086 159.385 41.3629 159.675 42.0568C159.683 42.079 159.692 42.0995 159.702 42.1217C159.895 42.597 160.113 43.0849 160.304 43.5063C160.597 44.1526 160.831 44.6342 160.831 44.6342Z" fill="#FFB0B1"/>
<path opacity="0.1" d="M159.702 42.1217C159.54 42.9497 159.147 43.7211 158.565 44.3554C157.983 44.9896 157.232 45.4634 156.391 45.7273C156.259 45.0042 156.076 44.2902 155.844 43.5903C155.844 43.5903 159.086 39.6061 159.136 40.4124C159.147 40.7181 159.4 41.3962 159.702 42.1217Z" fill="black"/>
<path opacity="0.1" d="M156.068 46.7919L156.488 46.2295C156.488 46.2295 156.766 47.8422 157.788 47.1309C158.811 46.4196 158.861 52.4838 158.861 52.4838L157.763 68.0927L149.834 67.6412L150.059 60.099L150.957 56.2969L153.176 50.7697L154.497 48.9432L156.068 46.7919Z" fill="black"/>
<path d="M158.861 52.5805L157.862 66.6939L157.757 68.1894L153.336 67.9375L153.169 67.928L149.839 67.7379L150.064 60.194L150.962 56.392L153.181 50.8648L154.502 49.0382L156.073 46.879L156.493 46.3182C156.493 46.3182 156.771 47.9309 157.793 47.2196L157.815 47.2053C158.814 46.6034 158.861 52.5805 158.861 52.5805Z" fill="#1D2366"/>
<path d="M151.073 55.0708C151.073 55.0708 150.675 55.8629 149.876 55.7346C149.077 55.6063 149.078 58.5861 149.078 58.5861C149.078 58.5861 148.547 59.0613 148.181 58.6495C147.815 58.2376 146.849 59.6301 146.849 59.6301L140.798 59.8835C140.798 59.8835 143.49 61.0542 142.962 64.5965C142.962 64.5965 152.104 64.0578 152.404 63.2357C152.703 62.4135 151.073 55.0708 151.073 55.0708Z" fill="white"/>
<path opacity="0.03" d="M151.073 55.0708C151.073 55.0708 150.675 55.8629 149.876 55.7346C149.077 55.6063 149.078 58.5861 149.078 58.5861C149.078 58.5861 148.547 59.0613 148.181 58.6495C147.815 58.2376 146.849 59.6301 146.849 59.6301L140.798 59.8835C140.798 59.8835 143.49 61.0542 142.962 64.5965C142.962 64.5965 152.104 64.0578 152.404 63.2357C152.703 62.4135 151.073 55.0708 151.073 55.0708Z" fill="black"/>
<path d="M133.488 61.7449L135.083 63.0408L148.214 65.6658L146.586 64.0848L133.488 61.7449Z" fill="white"/>
<path d="M156.093 47.2909C155.875 47.6077 155.251 49.2299 154.73 50.6462C154.295 51.8264 153.932 52.864 153.932 52.864C153.932 52.864 153.085 58.114 152.652 59.0629C152.219 60.0119 152.453 63.7125 152.453 63.7125L150.84 72.8516C150.84 72.8516 150.109 77.5646 148.98 80.3796C147.866 83.1504 146.626 84.4494 146.587 84.4906C147.087 83.8474 149.809 71.1835 149.809 71.1835L150.708 55.2118C150.708 55.2118 150.84 53.6942 150.973 52.3967C151.106 51.0993 153.804 49.3282 153.804 49.3282L156.405 45.8097C156.666 46.1424 156.491 46.7222 156.093 47.2909Z" fill="white"/>
<path d="M149.311 67.8171C149.311 67.8171 145.482 67.6587 143.627 65.5391C141.772 63.4194 147.914 64.6931 147.914 64.6931L149.511 65.0416L149.311 67.8171Z" fill="#FFB0B1"/>
<path opacity="0.1" d="M167.196 92.0756C166.991 92.7659 166.958 93.4922 167.1 94.1968C162.922 94.4788 158.453 93.4047 158.453 93.4047C157.62 94.1335 155.427 95.2075 155.427 95.2075L154.232 81.1083C153.467 79.2073 153.168 69.2476 153.168 69.2476C153.168 69.2476 153.236 68.7264 153.334 67.9454C153.334 67.9264 153.334 67.9058 153.343 67.8868C153.641 65.7054 154.232 61.6103 154.522 61.0574C154.921 60.297 153.293 58.274 153.293 58.274L154.034 52.262L154.124 51.5365C155.685 50.8727 156.883 48.7531 156.883 48.7531L157.802 47.2212C158.801 46.6113 158.852 52.5884 158.852 52.5884L157.853 66.7018L161.164 65.8321C161.164 65.8321 167.761 90.2728 167.196 92.0756Z" fill="black"/>
<path d="M171.484 93.0499C166.93 95.2012 158.653 93.2083 158.653 93.2083C157.82 93.937 155.627 95.0111 155.627 95.0111L154.43 80.9119C153.667 79.0109 153.368 69.0512 153.368 69.0512C153.368 69.0512 154.33 61.6198 154.73 60.861C154.846 60.6392 154.79 60.3097 154.651 59.9548C153.972 58.2658 153.722 56.4478 153.922 54.6494L154.242 52.0656L154.33 51.3416C155.894 50.6763 157.091 48.5567 157.091 48.5567L157.923 47.1689L159.455 44.612L160.181 43.4017L160.304 43.5079L161.245 44.319C161.245 44.319 161.645 44.6358 162.244 45.1111C163.548 46.1566 165.801 47.9974 166.963 49.1238C167.985 50.1155 168.309 53.973 168.402 56.8768C168.463 58.7889 168.427 60.2875 168.427 60.2875C167.396 61.9018 170.092 74.8619 170.092 74.8619C170.72 77.3665 171.484 93.0499 171.484 93.0499Z" fill="white"/>
<path opacity="0.03" d="M162.742 48.525C162.742 48.525 159.617 54.1852 159.98 56.3365C160.343 58.4879 161.375 60.9227 160.877 61.4915C160.706 61.7069 160.485 61.8818 160.231 62.0025C159.977 62.1231 159.697 62.1862 159.414 62.1869C158.914 62.2186 157.582 63.1042 157.582 63.1992C157.582 63.2943 156.351 63.2943 155.251 63.7378C154.15 64.1814 152.525 64.4333 152.525 64.4333C152.525 64.4333 149.361 64.3382 149.067 64.6234C148.772 64.9085 148.469 66.6147 149.1 67.9755C149.731 69.3363 150.432 70.3518 150.962 70.5371C151.491 70.7225 154.851 69.6516 157.577 69.3981C160.303 69.1446 163.262 67.09 163.262 67.09C163.262 67.09 166.52 65.981 167.091 64.1164C167.662 62.2519 166.394 52.0038 166.394 52.0038C166.394 52.0038 165.435 47.2275 162.742 48.525Z" fill="black"/>
<path opacity="0.03" d="M162.343 48.0497C162.343 48.0497 159.217 53.7116 159.583 55.8613C159.95 58.011 160.979 60.4475 160.479 61.0178C160.309 61.2335 160.088 61.4086 159.834 61.5293C159.581 61.65 159.301 61.713 159.017 61.7133C158.518 61.745 157.186 62.6305 157.186 62.7256C157.186 62.8206 155.955 62.8206 154.855 63.2626C153.754 63.7046 152.129 63.958 152.129 63.958C152.129 63.958 148.965 63.863 148.672 64.1481C148.379 64.4333 148.073 66.141 148.705 67.5003C149.338 68.8595 150.037 69.8765 150.567 70.0619C151.096 70.2472 154.457 69.1763 157.182 68.9244C159.908 68.6726 162.867 66.6147 162.867 66.6147C162.867 66.6147 166.124 65.5058 166.688 63.6428C167.253 61.7798 165.991 51.5286 165.991 51.5286C165.991 51.5286 165.035 46.7539 162.343 48.0497Z" fill="black"/>
<path d="M162.644 48.2398C162.644 48.2398 159.518 53.9017 159.885 56.0514C160.251 58.2011 161.28 60.6376 160.782 61.2063C160.612 61.4225 160.391 61.5981 160.137 61.719C159.883 61.84 159.603 61.9031 159.319 61.9034C158.819 61.9351 157.487 62.8206 157.487 62.9141C157.487 63.0075 156.258 63.0091 155.156 63.4527C154.054 63.8963 152.43 64.1482 152.43 64.1482C152.43 64.1482 149.266 64.0531 148.972 64.3383C148.677 64.6234 148.374 66.3312 149.005 67.6904C149.636 69.0496 150.337 70.0666 150.867 70.252C151.396 70.4373 154.756 69.3664 157.482 69.113C160.208 68.8595 163.167 66.8048 163.167 66.8048C163.167 66.8048 166.425 65.6959 166.996 63.8313C167.568 61.9667 166.307 51.7187 166.307 51.7187C166.307 51.7187 165.335 46.9503 162.644 48.2398Z" fill="white"/>
<path opacity="0.1" d="M162.576 63.4258C162.576 63.4258 160.078 62.9505 160.947 63.7426C161.816 64.5347 161.811 65.2285 162.875 65.1969C163.939 65.1652 162.576 63.4258 162.576 63.4258Z" fill="black"/>
<path opacity="0.1" d="M166.797 80.4684C166.797 80.4684 165.668 81.1955 167.827 82.8715C169.987 84.5476 166.797 80.4684 166.797 80.4684Z" fill="black"/>
<path opacity="0.1" d="M164.642 86.4455C164.642 86.5405 164.242 89.9307 165.738 90.7782C167.233 91.6257 164.642 86.4455 164.642 86.4455Z" fill="black"/>
<path d="M140.901 59.8756C139.696 59.9152 137.091 60.2653 138.442 62.6622C139.636 64.7834 141.642 63.3656 142.771 62.2899C142.496 61.287 141.826 60.4229 140.901 59.8756Z" fill="#FFB0B1"/>
<path d="M142.786 62.2709L142.836 62.2218L142.786 62.2709Z" fill="#FFB0B1"/>
<path opacity="0.1" d="M162.244 45.2077C160.965 46.0394 159.893 46.7412 159.683 46.8869C159.111 47.2909 158.018 49.6624 157.314 50.8727C156.753 51.847 154.929 52.0973 154.242 52.1591L154.33 51.4351C155.894 50.7698 157.091 48.6501 157.091 48.6501L160.181 43.4952L161.245 44.4156C161.245 44.4156 161.645 44.7325 162.244 45.2077Z" fill="black"/>
<path d="M162.244 45.1126C160.965 45.9443 159.893 46.6461 159.683 46.7935C159.111 47.1958 158.018 49.5674 157.314 50.7777C156.753 51.7519 154.929 52.0022 154.242 52.064L154.33 51.34C155.894 50.6747 157.091 48.5551 157.091 48.5551L160.181 43.4001L161.245 44.3174C161.245 44.3174 161.645 44.6311 162.244 45.1126Z" fill="#DCE7FF"/>
<path d="M159.783 41.0762C159.784 42.0271 159.481 42.9558 158.914 43.7392C158.245 44.6653 157.249 45.3325 156.106 45.6197C154.964 45.9069 153.752 45.795 152.689 45.3044C151.626 44.8137 150.783 43.9769 150.313 42.9456C149.843 41.9143 149.778 40.757 150.128 39.6835C150.478 38.6101 151.222 37.6918 152.223 37.0951C153.224 36.4984 154.417 36.2629 155.585 36.4314C156.753 36.5999 157.819 37.1611 158.589 38.0133C159.359 38.8655 159.783 39.9522 159.783 41.0762Z" fill="#FFB0B1"/>
<path opacity="0.1" d="M168.402 56.8784C167.726 56.4826 167.175 55.9198 166.808 55.2498C166.53 54.727 166.345 54.1235 165.871 53.7528C165.443 53.4201 164.872 53.3393 164.339 53.1904C162.587 52.6977 161.119 51.1769 161.064 49.4406C161.037 48.6232 161.305 47.8074 161.184 46.9978C161.114 46.5397 160.923 46.1061 160.627 45.7384C160.481 45.5626 160.32 45.3979 160.146 45.2457C159.913 45.0366 159.668 44.8338 159.455 44.6121C159.321 44.4747 159.204 44.3233 159.106 44.1606C159.026 44.0274 158.962 43.8867 158.914 43.7408C158.581 42.7712 158.884 41.6211 158.518 40.6405L158.498 40.5867C158.36 40.2381 158.078 39.8896 157.687 39.8627C157.296 39.8358 156.961 40.1447 156.588 40.2825C155.807 40.5708 154.964 40.0797 154.313 39.5791C153.662 39.0785 152.928 38.5066 152.1 38.6175C151.553 38.692 151.12 39.0468 150.615 39.2306C150.501 39.2726 150.384 39.3049 150.264 39.3272C150.691 38.3142 151.475 37.4742 152.483 36.9516C153.49 36.4291 154.657 36.2565 155.783 36.4637C156.91 36.6708 157.925 37.2447 158.655 38.0867C159.385 38.9287 159.784 39.9863 159.783 41.0778C159.784 41.4074 159.748 41.7361 159.675 42.0584C159.683 42.0805 159.692 42.1011 159.702 42.1233C159.895 42.5986 160.113 43.0865 160.304 43.5079L161.245 44.319C161.245 44.319 161.645 44.6358 162.244 45.1111C163.548 46.1566 165.801 47.9975 166.963 49.1238C167.986 50.1187 168.305 53.9746 168.402 56.8784Z" fill="black"/>
<path d="M150.557 36.3363C150.795 35.8753 150.913 35.3589 151.198 34.9216C151.616 34.288 152.345 33.8824 153.095 33.6369C155.051 32.9953 159.185 32.0638 160.421 33.6369C160.664 33.9537 160.866 34.3054 161.202 34.524C161.458 34.6904 161.768 34.7616 162.049 34.8868C162.837 35.2385 163.34 36.0052 163.608 36.7878C163.876 37.5704 163.956 38.41 164.152 39.2164C164.404 40.2508 164.845 41.2314 165.285 42.2057C165.803 43.3558 166.352 44.5487 167.351 45.3614C168.715 46.4703 169.016 48.0402 170.282 49.2569C171.78 50.7017 171.732 53.0858 170.959 54.9789C170.858 55.2276 170.743 55.4875 170.783 55.752C170.823 56.0166 171.029 56.2574 171.224 56.4681L172.043 57.3473C170.105 57.7924 167.912 56.8293 167.01 55.1389C166.732 54.6162 166.547 54.0142 166.071 53.6419C165.644 53.3092 165.072 53.23 164.54 53.0811C162.789 52.5868 161.32 51.0644 161.265 49.3282C161.239 48.5123 161.507 47.6965 161.385 46.8885C161.317 46.4273 161.125 45.9906 160.827 45.6212C160.369 45.0525 159.678 44.6707 159.305 44.037C158.674 42.9772 159.154 41.6005 158.699 40.4631C158.559 40.1146 158.28 39.7661 157.888 39.7391C157.497 39.7122 157.162 40.0211 156.788 40.1589C156.008 40.4473 155.166 39.9577 154.515 39.4556C153.864 38.9534 153.13 38.3831 152.3 38.4956C151.752 38.5684 151.321 38.9233 150.817 39.1086C150.444 39.2449 149.688 39.3668 149.361 39.0674C148.672 38.4639 150.269 36.9003 150.557 36.3363Z" fill="#591D4B"/>
<path opacity="0.1" d="M167.473 54.6162C167.193 54.0934 167.01 53.4914 166.534 53.1207C166.107 52.788 165.534 52.7072 165.002 52.5583C163.252 52.0656 161.783 50.5432 161.726 48.807C161.7 47.9911 161.968 47.1737 161.848 46.3658C161.778 45.9075 161.586 45.4739 161.29 45.1063C160.831 44.5376 160.14 44.1558 159.768 43.5221C159.137 42.4639 159.617 41.0873 159.16 39.9482C159.022 39.6013 158.741 39.2528 158.351 39.2243C157.962 39.1958 157.624 39.5078 157.251 39.6457C156.471 39.934 155.627 39.4429 154.978 38.9423C154.328 38.4417 153.591 37.8698 152.763 37.9807C152.215 38.0552 151.782 38.41 151.28 38.5938C150.907 38.73 150.149 38.8536 149.823 38.5542C149.137 37.9205 150.733 36.3601 151.02 35.7993C151.258 35.3367 151.376 34.8218 151.663 34.3846C151.678 34.3608 151.694 34.3371 151.711 34.3133C151.497 34.4822 151.312 34.6821 151.163 34.9058C150.878 35.343 150.76 35.8563 150.522 36.3205C150.234 36.8813 148.637 38.4464 149.325 39.0754C149.658 39.3764 150.407 39.2528 150.78 39.1165C151.28 38.9312 151.716 38.5763 152.264 38.5035C153.096 38.391 153.829 38.9629 154.478 39.4635C155.128 39.9641 155.977 40.4552 156.753 40.1669C157.126 40.029 157.452 39.7185 157.852 39.7471C158.251 39.7756 158.518 40.1225 158.663 40.471C159.117 41.6085 158.638 42.9851 159.269 44.0449C159.642 44.6675 160.333 45.0572 160.791 45.6291C161.089 45.9986 161.281 46.4352 161.348 46.8965C161.47 47.7044 161.202 48.5202 161.229 49.3361C161.283 51.0787 162.752 52.5947 164.504 53.089C165.032 53.2379 165.608 53.3171 166.034 53.6498C166.512 54.0221 166.7 54.6241 166.973 55.1469C167.876 56.8372 170.069 57.8004 172.007 57.3552L171.62 56.9401C169.94 56.9639 168.24 56.0546 167.473 54.6162Z" fill="black"/>
<path opacity="0.1" d="M155.993 47.386C155.775 47.7028 155.151 49.325 154.63 50.7413C154.142 50.5607 153.699 49.409 153.699 49.409L156.3 45.8889C156.566 46.2374 156.391 46.8157 155.993 47.386Z" fill="black"/>
<path d="M156.093 47.2909C155.875 47.6077 155.251 49.2299 154.73 50.6462C154.242 50.4672 153.799 49.3139 153.799 49.3139L156.4 45.7954C156.666 46.1424 156.491 46.7222 156.093 47.2909Z" fill="#DCE7FF"/>
<path d="M140.971 63.4749L139.529 59.1485C139.512 59.0978 139.506 59.0445 139.51 58.9914C139.515 58.9384 139.53 58.8868 139.556 58.8396C139.582 58.7923 139.617 58.7504 139.66 58.7161C139.703 58.6819 139.752 58.656 139.805 58.6399C139.913 58.6081 140.029 58.6178 140.129 58.6671C140.229 58.7163 140.304 58.8011 140.338 58.9029L141.78 63.2246L141.637 64.1291L140.971 63.4749Z" fill="#BE8B87"/>
<path opacity="0.1" d="M139.666 58.7683C139.773 58.7359 139.89 58.7454 139.99 58.7947C140.09 58.844 140.166 58.9291 140.2 59.0313L141.642 63.3529L141.534 64.0309L141.639 64.1355L141.782 63.2309L140.332 58.9093C140.297 58.8074 140.222 58.7227 140.122 58.6734C140.022 58.6242 139.906 58.6144 139.799 58.6463C139.708 58.6742 139.63 58.7299 139.577 58.8047C139.606 58.7903 139.635 58.7781 139.666 58.7683Z" fill="white"/>
<path d="M140.971 63.4749L141.78 63.2309L141.662 63.9723L141.637 64.1355L141.401 63.901L140.971 63.4749Z" fill="#EFC8C4"/>
<path d="M141.401 63.901C141.415 63.8841 141.432 63.8701 141.452 63.8598C141.464 63.8528 141.477 63.8491 141.491 63.8491C141.505 63.8491 141.519 63.8528 141.53 63.8598C141.542 63.8729 141.551 63.8872 141.559 63.9026C141.57 63.9201 141.585 63.935 141.603 63.9462C141.62 63.9575 141.641 63.9648 141.662 63.9676L141.637 64.126L141.401 63.901Z" fill="#727A9C"/>
<path d="M139.521 60.6851C139.521 60.6851 142.413 60.6693 141.732 61.84C141.051 63.0107 139.987 63.1517 139.987 63.1517L139.521 60.6851Z" fill="#FFB0B1"/>
<path d="M121.533 8.14584H121.408C116.439 8.14584 112.045 10.6473 109.517 14.3384C106.99 10.6473 102.595 8.14584 97.6268 8.14584H97.5019C93.7731 8.17965 90.2089 9.61216 87.584 12.1321C84.9591 14.652 83.4855 18.0557 83.4835 21.6034C83.4835 26.009 85.5115 32.2602 89.4662 37.404C97.0007 47.2054 109.517 55.7805 109.517 55.7805C109.517 55.7805 122.034 47.2069 129.567 37.404C133.523 32.2602 135.549 26.009 135.549 21.6034C135.547 18.0559 134.074 14.6525 131.449 12.1326C128.825 9.61276 125.261 8.18007 121.533 8.14584ZM119.746 38.1581C119.18 38.1561 118.628 37.9913 118.162 37.6854C117.697 37.3795 117.339 36.9467 117.137 36.444H114.166C113.971 36.4429 113.78 36.3836 113.622 36.2746C113.463 36.1655 113.344 36.0121 113.282 35.8357L112.37 33.2202L109.482 42.8188C109.426 43.0035 109.308 43.166 109.147 43.2817C108.985 43.3974 108.789 43.4601 108.586 43.4604H108.528C108.317 43.4507 108.116 43.3724 107.959 43.2386C107.801 43.1048 107.696 42.9236 107.662 42.7253L104.687 25.6985L102.512 35.7739C102.462 35.9653 102.347 36.1353 102.183 36.2568C102.02 36.3782 101.819 36.4442 101.611 36.444H97.427C97.3016 36.4491 97.1763 36.4299 97.0589 36.3877C96.9414 36.3456 96.8342 36.2812 96.7435 36.1985C96.6529 36.1159 96.5808 36.0166 96.5315 35.9068C96.4822 35.7969 96.4568 35.6787 96.4568 35.5593C96.4568 35.4398 96.4822 35.3216 96.5315 35.2117C96.5808 35.1019 96.6529 35.0026 96.7435 34.92C96.8342 34.8373 96.9414 34.773 97.0589 34.7308C97.1763 34.6886 97.3016 34.6695 97.427 34.6745H100.879L103.959 21.1282C104.01 20.9279 104.132 20.7506 104.305 20.6265C104.477 20.5024 104.69 20.4392 104.906 20.4478C105.123 20.4564 105.329 20.5363 105.491 20.6736C105.652 20.811 105.758 20.9975 105.791 21.2011L108.83 38.57L111.417 29.9822C111.471 29.8013 111.585 29.6419 111.742 29.5277C111.899 29.4134 112.09 29.3506 112.288 29.3485H112.306C112.502 29.3486 112.693 29.4074 112.851 29.5166C113.01 29.6259 113.128 29.7799 113.189 29.9568L114.839 34.6793H117.1C117.261 34.2146 117.553 33.8012 117.946 33.4847C118.338 33.1682 118.814 32.9609 119.322 32.8858C119.83 32.8106 120.35 32.8705 120.825 33.0588C121.3 33.2471 121.71 33.5565 122.012 33.9528C122.313 34.3492 122.494 34.817 122.533 35.3048C122.573 35.7926 122.47 36.2813 122.236 36.717C122.002 37.1527 121.647 37.5184 121.208 37.7738C120.769 38.0293 120.265 38.1644 119.751 38.1644L119.746 38.1581Z" fill="#4ECCA3"/>
</g>
</g>
<defs>
<filter id="filter0_d" x="0" y="0" width="192" height="132" filterUnits="userSpaceOnUse" color-interpolation-filters="sRGB">
<feFlood flood-opacity="0" result="BackgroundImageFix"/>
<feColorMatrix in="SourceAlpha" type="matrix" values="0 0 0 0 0 0 0 0 0 0 0 0 0 0 0 0 0 0 127 0"/>
<feOffset dy="4"/>
<feGaussianBlur stdDeviation="2"/>
<feColorMatrix type="matrix" values="0 0 0 0 0 0 0 0 0 0 0 0 0 0 0 0 0 0 0.25 0"/>
<feBlend mode="normal" in2="BackgroundImageFix" result="effect1_dropShadow"/>
<feBlend mode="normal" in="SourceGraphic" in2="effect1_dropShadow" result="shape"/>
</filter>
<linearGradient id="paint0_linear" x1="63.3325" y1="122.753" x2="63.3325" y2="25.2724" gradientUnits="userSpaceOnUse">
<stop stop-color="#808080" stop-opacity="0.25"/>
<stop offset="0.54" stop-color="#808080" stop-opacity="0.12"/>
<stop offset="1" stop-color="#808080" stop-opacity="0.1"/>
</linearGradient>
<linearGradient id="paint1_linear" x1="37171.6" y1="73550.6" x2="37171.6" y2="23512.8" gradientUnits="userSpaceOnUse">
<stop stop-color="#808080" stop-opacity="0.25"/>
<stop offset="0.54" stop-color="#808080" stop-opacity="0.12"/>
<stop offset="1" stop-color="#808080" stop-opacity="0.1"/>
</linearGradient>
<clipPath id="clip0">
<rect x="4" width="184" height="124" fill="white"/>
</clipPath>
</defs>
</svg>
